<?xml version="1.0" encoding="UTF-8"?><svg id="Layer_1" xmlns="http://www.w3.org/2000/svg" viewBox="0 0 128 128"><defs><style>.cls-1{fill:#fff;}.cls-2{fill:#ecf0f6;}.cls-3{fill:#ff957d;}.cls-4{fill:#7de2d1;}.cls-5{fill:#20377d;}.cls-6{fill:#42d4c6;}</style></defs><g><circle class="cls-2" cx="64" cy="64.12" r="64"/><g><path class="cls-1" d="M112.04,22.78c.18,.06,.44-.22,.54-.39-.16-.19-.32-.38-.48-.56-.12,.07-.24,.2-.27,.31-.04,.15,.03,.58,.21,.64Z"/><path class="cls-1" d="M107.22,17.8c-.27,.18-.36,.85-.16,1.18,.17,.27,.67,.41,.92,.26,.49-.31,.71-.77,.6-1.11-.12-.12-.25-.24-.38-.36-.32-.12-.74-.13-.98,.03Z"/><path class="cls-1" d="M108.89,20.54c.38,.07,1.03-.39,1.09-.78,.01-.08,0-.15,0-.22-.27-.28-.52-.56-.79-.83-.46-.02-.79,.23-.88,.72-.09,.49,.2,1.04,.57,1.11Z"/><path class="cls-1" d="M117.56,69.57c.18,.06,.55,0,.63-.12,.1-.16,0-.45-.01-.61-.39-.23-.6-.09-.73,.12-.13,.21-.17,.52,.11,.61Z"/><path class="cls-1" d="M122.97,45.49c.09,.04,.24,.03,.4,0-.01,0-.04,.01-.04,.02-.15,.13-.15,.83,.26,1.08,.25,.16,.57,.11,.8-.16,.22-.26,.27-.55,.06-.81-.2-.24-.52-.26-.78-.22,.19-.08,.37-.19,.44-.3,.19-.29,.05-.59-.37-.83-.47-.26-.79-.23-.98,.11-.26,.46-.17,.94,.21,1.12Z"/><path class="cls-1" d="M118.87,37.68c.19,.26,.38,.57,.76,.39,.14-.07,.24-.34,.25-.53,0-.13-.17-.35-.3-.38-.38-.1-.6,.14-.71,.52Z"/><path class="cls-1" d="M116.22,27.72c.13-.07,.21-.17,.27-.29-.19-.28-.38-.56-.58-.83-.09,0-.17,.02-.25,.07-.19,.12-.31,.35-.46,.53l-.02-.03c.16,.24,.32,.48,.49,.75,.21-.07,.39-.1,.55-.19Z"/><path class="cls-1" d="M122.75,43.66c.19,.24,.54,.27,.79,.06,.16-.13,.23-.37,.18-.61,.16-.15,.22-.36,.18-.61-.05-.27-.2-.43-.48-.44-.47-.02-.63,.31-.77,.72,.03,.03,.05,.06,.08,.09-.17,.2-.17,.56,.02,.8Z"/><path class="cls-1" d="M119.6,42.2c-.14-.19-.65,0-.8,.11-.09,.07-.08,.39,0,.55,.1,.2,.35,.3,.52,.09,.12-.15,.42-.56,.28-.75Z"/><path class="cls-1" d="M118.15,36.45c.33-.17,.47-.76,.27-1.15-.15-.28-.65-.45-.91-.3-.54,.31-.8,.82-.59,1.17,.21,.35,.83,.49,1.24,.28Z"/><path class="cls-1" d="M116.89,33.67c.08,.26,.29,.49,.49,.69,.12,.13,.31,.2,.48,.28,.17,.08,.35,.13,.53,.19,.59,.18,.97,.06,1.17-.38,.23-.49,.05-.99-.45-1.29-.52-.31-1.08-.58-1.53-.97-.37-.32-1.04-.42-1.24-.15s.03,.78,.18,.85c.41,.19,.29,.49,.37,.78Z"/><path class="cls-1" d="M116.86,30.97c.06-.16,.08-.47-.02-.56s-.44,0-.54,.1c-.09,.1-.15,.57,0,.66,.14,.09,.53-.1,.57-.2Z"/><path class="cls-1" d="M100.42,12.71c-.25,.17-.32,.63-.14,.86,.19,.23,.62,.3,.88,.14,.27-.17,.34-.5,.17-.77-.2-.32-.63-.43-.91-.23Z"/><path class="cls-1" d="M120.81,42.28c-.02,.2,.05,.58,.21,.61,.16,.03,.45-.1,.53-.23,.07-.13,.02-.6-.13-.67s-.6,.2-.6,.29Z"/><path class="cls-1" d="M121.58,40.72c-.34-.49-.68-.62-1.06-.37-.02,.02-.04,.04-.06,.06-.08-.07-.18-.14-.3-.19-.31-.15-.83,0-.99,.29-.18,.34,0,1.25,.3,1.39,.23,.11,.55,.02,.81-.18,.29,.27,.88,.37,1.21,.16,.3-.19,.35-.78,.09-1.16Z"/><path class="cls-1" d="M124.75,43.96c-.05-.15-.1-.3-.15-.45-.02,.18,.04,.33,.15,.45Z"/><path class="cls-1" d="M124.24,68.19c.32,.24,.95,.08,1.29-.34,.31-.37,.21-.79-.27-1.16-.27-.21-.81-.17-1.02,.08-.25,.3-.25,1.23,0,1.42Z"/><path class="cls-1" d="M117.47,45.73c-.18,.14-.06,.67,.01,.88,.08,.23,.49,.25,.7,.07,.21-.18,.31-.43,.1-.62-.16-.15-.64-.46-.82-.33Z"/><path class="cls-1" d="M126.46,62.41c-.06,.04-.05,.3,0,.32,.11,.06,.31,.09,.4,.03,.08-.05,.24-.28,.08-.47s-.38,.04-.48,.11Z"/><path class="cls-1" d="M119.12,43.84c.16-.29,0-.75-.29-.9-.28-.14-.59-.04-.76,.23-.21,.35-.12,.73,.2,.9,.28,.15,.71,.03,.85-.23Z"/><path class="cls-1" d="M125.08,49.72s.1,.08,.15,.12c.14,.16,.34,.23,.59,.23,.23,0,.41-.09,.57-.21-.21-.93-.45-1.86-.7-2.79-.11,.1-.25,.16-.36,.26-.2,.18-.31,.48-.4,.75-.06,.17-.04,.37-.03,.55,0,.19,.04,.37,.07,.56,0,.05,.03,.09,.04,.13,0,.15,0,.3,.09,.41Z"/><path class="cls-1" d="M122.57,38.26c-.55-1.24-1.12-2.48-1.75-3.69-.34-.2-.68-.05-1.16,.44-.42,.43-.36,1.1,.2,1.38,.42,.21,.89,.24,1.48,.38,.16,.48,.4,1,.93,1.16,.08,.13,.18,.24,.3,.33Z"/><path class="cls-1" d="M118.45,30.41c-.23-.36-.45-.73-.68-1.09-.11,.31-.17,.69-.08,.85,.13,.22,.44,.3,.76,.24Z"/><path class="cls-1" d="M124.41,48.47c-.52-.35-1.09-.35-1.31,0-.22,.34-.07,.96,.3,1.23,.3,.22,.89,.08,1.15-.27,.19-.26,.11-.78-.14-.95Z"/><path class="cls-1" d="M123.01,52.33c-.24,.14-.33,.51-.19,.79,.14,.28,.53,.41,.75,.22,.24-.21,.35-.48,.2-.79-.13-.28-.49-.37-.76-.22Z"/><path class="cls-1" d="M113.84,25.9c.27-.08,.66-.15,.64-.51-.01-.22,.03-.4,.1-.56-.25-.32-.48-.64-.74-.95-.17,.28-.44,.4-.72,.47-.38,.24-.58,.72-.47,1.01,.12,.3,.81,.64,1.19,.54Z"/><path class="cls-1" d="M116.98,42.4c.04-.13,.07-.39,.04-.6,.16,0,.33-.03,.46-.12,.54-.33,.8-1,.56-1.43-.28-.49-1.29-.77-1.71-.48-.46,.31-.62,1.05-.32,1.51,.11,.18,.28,.3,.47,.39-.13,.11-.26,.25-.32,.33-.15,.21-.07,.46,.22,.57,.25,.1,.52,.11,.6-.17Z"/><path class="cls-1" d="M115.86,66.86c-.06,.14,0,.34,.09,.41,.09,.07,.44,.13,.5,0,.06-.14-.08-.36-.16-.4-.12-.05-.37-.14-.43,0Z"/><path class="cls-1" d="M116.59,45.06c.07,.04,.2,.04,.25-.07,.05-.1-.04-.2-.09-.23s-.19,.04-.21,.09c-.02,.05-.03,.17,.05,.21Z"/><path class="cls-1" d="M116.07,49.51c.05,0,.16-.25,.12-.3-.07-.1-.22-.31-.41-.24s-.13,.36-.08,.41c.09,.09,.25,.14,.37,.13Z"/><path class="cls-1" d="M116.17,38.96c.33-.03,.56-.19,.63-.52,.02-.12,0-.31-.07-.38-.24-.19-.51-.32-.79-.49-.11-.74-.48-1.21-.93-1.15-.18,.02-.35,.16-.5,.33-.01-.01-.01-.04-.03-.05-.15-.08-.58,.15-.74,.28-.21,.18-.1,.47,.18,.66,.1,.07,.18,.08,.26,.08,.09,.44,.38,.54,1.36,.45,.08,.4,.1,.82,.64,.78Z"/><path class="cls-1" d="M114.15,45.12c.42-.32,.48-.89,.15-1.37-.24-.35-.92-.42-1.33-.12-.42,.31-.46,.8-.09,1.28,.36,.47,.83,.54,1.26,.21Z"/><path class="cls-1" d="M113.85,49.98c.48,.23,1.01,.03,1.29-.47,.21-.38-.04-1.01-.48-1.24-.47-.24-.92-.05-1.19,.49-.26,.53-.12,.98,.38,1.22Z"/><path class="cls-1" d="M117.26,59.72c.33,.08,.61,0,.75-.31,.21-.45-.22-.97-.4-1.05s-.81,.24-.85,.72c-.03,.3,.16,.56,.5,.64Z"/><path class="cls-1" d="M117.68,67.08c-.11,.11-.05,.33,.02,.41,.07,.08,.39,.2,.49,.1s-.01-.42-.09-.49c-.09-.07-.31-.13-.42-.02Z"/><path class="cls-1" d="M117.91,48.05c.24-.34,.13-1-.22-1.25-.28-.2-.73-.11-.93,.19-.23,.33-.08,.9,.29,1.14,.34,.22,.68,.19,.87-.08Z"/><path class="cls-1" d="M126.61,59.18c-.41-.1-.46-.39-.61-.7,.84-.44,.96-1,.4-1.6-.05-.06-.11-.11-.18-.16-.44-.35-.77-.3-1.07,.17-.25,.39-.46,.8,.04,1.34-.33-.02-.52,.01-.67-.05-.33-.13-.58-.06-.77,.22-.2,.3-.34,.61-.13,.97,.65,1.09,1,1.21,2.16,.73,.02-.01,.05-.01,.1-.02h0c-.16,.08-.32,.21-.4,.3-.17,.18-.2,.44,.06,.63,.26,.19,.58,.16,.71-.09,.06-.11,.1-.39,.06-.6,.33,.11,.57,.04,.72-.21,.2-.34,.03-.82-.45-.93Z"/><path class="cls-1" d="M117.21,79.18c.1-.2,.29-.73,.11-.87-.18-.14-.66,.11-.85,.23-.2,.13-.12,.53,.11,.7,.22,.15,.49,.19,.63-.06Z"/><path class="cls-1" d="M101.7,18.46c.21-.17,.39-.38,.22-.68-.13-.24-.78-.26-.89-.09s-.02,.43,.07,.63c.1,.22,.35,.34,.6,.14Z"/><path class="cls-1" d="M102.25,17.91c.33,.09,.7-.13,.76-.44,.06-.32-.16-.67-.47-.75-.32-.08-.58,.07-.68,.41-.11,.36,.06,.69,.39,.77Z"/><path class="cls-1" d="M114.2,34.96c.22-.17,.31-.92,.15-1.2-.17-.3-.51-.31-.91-.04-.45,.3-.56,.6-.34,.92,.3,.44,.76,.57,1.1,.31Z"/><path class="cls-1" d="M123.19,51.73c.12-.06,.24-.31,.21-.44-.08-.39-.39-.47-.78-.4-.14,.29-.34,.59,0,.85,.12,.1,.42,.06,.58-.01Z"/><path class="cls-1" d="M127.9,65.07s.05,.09,.08,.12c0-.52,.02-1.04,.01-1.57-.01,.01-.04,.02-.05,.04-.05,.06-.07,.14-.11,.21-.13,.05-.24,.14-.32,.28-.16,.28-.07,.72,.17,.86,.06,.03,.14,.05,.22,.06Z"/><path class="cls-1" d="M123.61,57.07c.15-.02,.3-.07,.34-.12,.1-.14,.18-.44,.09-.55-.05-.06-.17-.08-.29-.08-.04-.05-.08-.1-.14-.14-.27-.21-.57-.23-.82-.04-.38,.28-.29,.86-.08,1.05,.18,.16,.61,.15,.9-.11Z"/><path class="cls-1" d="M127.61,57.14c-.04-.38-.09-.76-.14-1.15-.16-.04-.32,.01-.47,.17-.24,.26-.24,.63,0,.86,.15,.14,.4,.18,.6,.12Z"/><path class="cls-1" d="M127.17,69.69c.17,.27,.28,.56,.53,.62,.04-.39,.06-.79,.09-1.18-.27,.04-.45,.27-.62,.56Z"/><path class="cls-1" d="M113.91,41.44c.35-.2,.47-.52,.32-.81-.2-.37-.84-.56-1.21-.36-.3,.16-.42,.6-.25,.92,.19,.35,.77,.48,1.15,.25Z"/><path class="cls-1" d="M112.82,42.17c-.08,.13,.02,.33,.11,.4,.08,.07,.42,.12,.5,0s-.1-.41-.19-.46c-.1-.05-.33-.06-.41,.07Z"/><path class="cls-1" d="M104.27,14.39s.07-.03,.1-.05c-.82-.67-1.66-1.32-2.5-1.94-.03,.16-.05,.33-.05,.51,0,.31,.11,.57,.28,.79,.23,.3,.58,.43,1.02,.46,.44,.03,.74,.38,1.15,.23Z"/><path class="cls-1" d="M111.83,25.66c.28-.2,.38-.9,.16-1.17-.2-.25-.9-.29-1.21-.07-.28,.2-.31,.54-.08,.85,.39,.53,.75,.65,1.14,.38Z"/><path class="cls-1" d="M110.62,20.71c-.22-.26-.58-.29-.85-.04-.21,.2-.45,.41-.28,.66,.31,.42,.68,.54,.96,.35,.34-.23,.42-.68,.17-.97Z"/><path class="cls-1" d="M123.92,54.21c.27,.78,1.34,1.12,2.19,.66,.32-.17,.45-.09,.7,.02,.17,.08,.36,.05,.53-.03-.06-.39-.13-.77-.2-1.16-.15-.06-.29-.13-.38-.23-.33-.38-.6-.81-.92-1.25,.67-1.06,.58-1.47-.49-1.82-.57-.19-1.14,.17-1.14,.79,0,.46,.18,.9,.32,1.49-.4,.39-.82,.89-.6,1.52Z"/><path class="cls-1" d="M70.38,9.71c.18-.07,.16-.25,.13-.31-.06-.11-.2-.32-.4-.27-.21,.05-.14,.37-.1,.42,.08,.09,.2,.23,.38,.16Z"/><path class="cls-1" d="M69.47,11.44c.38-.1,.68-.58,.52-.85-.16-.27-1.16-.25-1.34,.06-.18,.31,.44,.89,.82,.79Z"/><path class="cls-1" d="M66.75,.2c-.27-.11-.51,.11-.52,.34,0,.17,.05,.62,.41,.65s.42-.4,.42-.54c0-.15-.16-.39-.31-.45Z"/><path class="cls-1" d="M67.81,2.7c.06,.42,.26,.64,.7,.64,.48,0,.88-.47,.86-.99s-.32-.59-.3-.93c.02-.34-.17-.46-.51-.56s-.87-.24-1,.24c-.13,.48,.17,.63,.32,.65,.15,.03,.33,.28,.16,.31-.17,.03-.29,.2-.23,.63Z"/><path class="cls-1" d="M81.6,17.67c-.11,.05-.22,.29-.2,.43,.02,.1,.29,.34,.47,.3,.18-.04,.22-.47,.17-.58-.05-.1-.33-.2-.44-.15Z"/><path class="cls-1" d="M67.49,9.18c.51-.08,.64-.25,.7-.86,.32-.27,.64-.48,.89-.75,.25-.27,.07-.72-.29-.69-.42,.04-.9-.05-1.27,.31-.01,.19-.03,.4-.04,.6-.47,.31-.75,.77-.61,1.07,.12,.24,.34,.36,.63,.32Z"/><path class="cls-1" d="M120.57,73.78c.28,.28,.62,.32,.86,.1,.07-.06,.12-.15,.16-.24,0,0,.02,0,.02,0,.36-.32,.22-.67-.09-1.06-.03,0-.06,0-.09,.01-.24-.21-.66-.21-.91,.02-.29,.27-.27,.86,.04,1.17Z"/><path class="cls-1" d="M65.16,.88c-.21-.11-.58,.04-.68,.27-.12,.29,.02,.44,.62,.67,.46-.2,.31-.81,.05-.93Z"/><path class="cls-1" d="M82.89,5.75c-.17-.49-.6-.68-1.1-.51-.61,.21-.85,.72-.64,1.36,.16,.5,.74,.82,1.22,.68,.48-.14,.74-.9,.52-1.53Z"/><path class="cls-1" d="M126.79,73.29c-.22,.36-.06,.95,.33,1.21,0,0,.02,0,.02,0,.09-.53,.17-1.05,.25-1.58-.25,.05-.49,.18-.6,.36Z"/><path class="cls-1" d="M59.39,4.24c.12,0,.3-.15,.31-.25,.01-.1-.03-.38-.29-.39-.26-.01-.29,.26-.29,.38,0,.09,.18,.27,.26,.27Z"/><path class="cls-1" d="M64.59,3.7c-.11,.06-.29,.13-.24,.33,.05,.19,.23,.19,.3,.16,.11-.04,.39-.17,.34-.35-.05-.17-.33-.18-.4-.14Z"/><path class="cls-1" d="M106.82,42.16c-.09,.07-.2,.27-.12,.4s.3,.13,.4,.08c.1-.05,.3-.32,.22-.45-.08-.12-.41-.09-.5-.03Z"/><path class="cls-1" d="M105.98,26.37c.04-.16-.03-.34-.16-.5-.02-.07-.06-.14-.1-.22-.15-.23-.41-.3-.6-.15-.48-.04-.82,.22-.91,.72-.09,.52,.15,.96,.54,1.01,.52,.07,1.1-.34,1.23-.86Z"/><path class="cls-1" d="M106,46.81c-.07,.02-.23,.25-.15,.4,.09,.15,.37,.04,.48-.02,.07-.04,.14-.24,.08-.34-.06-.1-.29-.08-.41-.04Z"/><path class="cls-1" d="M91.33,25.93c-.02,.11,.14,.26,.25,.32,.06,.03,.34,0,.39-.17,.04-.17-.23-.29-.35-.33-.07-.02-.27,.07-.29,.18Z"/><path class="cls-1" d="M121.03,70.67c.07-.09,0-.21-.04-.25s-.19,0-.22,.05c-.03,.05-.06,.16,0,.21,.06,.05,.19,.08,.26-.01Z"/><path class="cls-1" d="M116.74,87.68c.29-.33,.3-.65,.02-.91-.41-.37-1.11-.42-1.38-.09-.23,.28-.12,.88,.22,1.16,.31,.26,.84,.19,1.15-.16Z"/><path class="cls-1" d="M115.54,91.87c-.09,.12-.06,.34,0,.42,.07,.08,.4,.22,.49,.1s0-.37-.08-.42c-.11-.08-.33-.22-.42-.1Z"/><path class="cls-1" d="M107.78,30.46c-.32-.52-.93-.66-1.45-.33-.51,.33-.69,1.16-.36,1.64,.3,.44,1.11,.6,1.6,.31,.52-.3,.6-.98,.2-1.63Z"/><path class="cls-1" d="M92.66,21.02c-.07,.3,.11,.57,.39,.55,.2-.02,.4-.16,.53-.21,.05-.4-.21-.68-.51-.71-.29-.03-.36,.17-.41,.38Z"/><path class="cls-1" d="M92.11,16.87c.07-.37-.26-1.06-.54-1.14-.44-.13-.86,.16-1.01,.68-.1,.38,.2,.74,.73,.87,.41,.1,.75-.07,.82-.42Z"/><path class="cls-1" d="M94.24,13.91c.05-.33-.18-.63-.54-.68h0c.09-.15,.14-.35,.14-.59,0-.31,0-.56,.21-.82,.31-.38,.19-.83,.07-1.23-.11-.38-.6-.66-1.02-.66-.04,0-.08,0-.12,0,.22-.16,.4-.39,.44-.63,.07-.38-.25-.71-.79-.83-.41-.09-.92,.16-.99,.47-.09,.44,.27,1.08,.66,1.17,.06,.01,.12,.02,.18,.01-.12,.1-.22,.24-.29,.43-.19,.46-.12,.89,0,1.33,.04,.16,.05,.35,0,.5-.21,.61,0,1.01,.62,1.17-.05,.07-.09,.14-.1,.21-.03,.27,.26,.57,.63,.64,.44,.08,.83-.15,.89-.5Z"/><path class="cls-1" d="M100.15,24.83c.23,.33,.53,.44,.74,.27,.25-.2,.37-.81,.21-1.04-.09-.14-.26-.21-.44-.21,.04-.27-.1-.6-.33-.59-.22,0-.73,.06-.78,.36-.05,.3,.34,.48,.51,.56h0c-.1,.19-.08,.43,.09,.66Z"/><path class="cls-1" d="M104.4,32.39c-.23,.1-.06,.38-.01,.49,.03,.06,.28,.12,.31,.08,.09-.1,.17-.27,.13-.38-.03-.09-.21-.3-.43-.2Z"/><path class="cls-1" d="M112.42,33.43c0-.32-.17-.55-.5-.64-.27-.08-.47-.01-.61,.23-.23,.41,0,.7,.3,1.01,.39-.12,.8-.14,.81-.6Z"/><path class="cls-1" d="M101.15,16.3c.42-.71,.28-1.36-.14-1.65-.28-.19-.81-.17-1.22,0,0-.29-.16-.53-.43-.59-.29-.07-.63,.17-.71,.5-.08,.33,.12,.67,.44,.74,.04,0,.08,.01,.12,.02-.14,.49,.12,.88,.38,1.13,.02,.02,.04,.04,.06,.05-.37,.08-.64,.39-.75,.9-.04,.19-.05,.37-.03,.53-.13-.05-.26-.08-.44,0-.39,.15-.5,.74-.29,1.11,.18,.31,.66,.56,1,.47,.49-.13,.6-.62,.59-.79,.54,.05,1.11-.31,1.21-.8,.1-.5-.05-.93-.38-1.19,.22-.05,.43-.18,.59-.44Z"/><path class="cls-1" d="M107.6,17.19c-.62-.58-1.25-1.14-1.88-1.69-.23-.07-.51-.04-.73,.12-.4,.3-.51,.7-.32,1.07-.31,.22-.55,.63-.49,.94,.09,.44,.79,.97,1.39,.74,.36-.14,.58-.35,.7-.59,.05,.02,.1,.03,.16,.05,.6,.16,.92-.17,1.18-.64Z"/><path class="cls-1" d="M99.14,24.91c.07-.05,.12-.16,.05-.25s-.2-.05-.25-.02c-.05,.03-.04,.19-.01,.23,.04,.04,.14,.1,.21,.05Z"/><path class="cls-1" d="M105.96,21.04c.04,.25,.35,.49,.58,.45,.33-.07,.48-.83,.25-.96s-.88,.19-.83,.52Z"/><path class="cls-1" d="M104.88,18.88c-.15,.14-.32,.39-.29,.57,.06,.36,.4,.34,.69,.34,.27-.27,.36-.57,.07-.84-.1-.09-.39-.14-.47-.06Z"/><path class="cls-1" d="M98.25,26.02c-.09,.06-.06,.38-.01,.49,.03,.06,.28,.12,.31,.08,.09-.1,.17-.27,.13-.38-.03-.09-.35-.26-.43-.2Z"/><path class="cls-1" d="M98.92,28.03c.15,.04,.31-.22,.36-.34,.03-.06-.04-.26-.16-.28-.12-.02-.31,.07-.36,.17-.04,.08,0,.41,.16,.45Z"/><path class="cls-1" d="M98.27,16.96c.26-.16,.17-.65,.07-.9-.07-.17-.69-.52-.95-.36-.26,.17-.05,.88,.1,1.1,.11,.16,.53,.33,.79,.16Z"/><path class="cls-1" d="M95.44,9.09c-.05,.36,.18,.71,.53,.77,.34,.06,.72-.2,.76-.52,.02-.15-.04-.31-.14-.45-.17-.1-.33-.19-.5-.29-.32-.01-.61,.2-.65,.49Z"/><path class="cls-1" d="M95.1,8.04c-.29-.16-.57-.32-.86-.48,0,0,0,0,0,.01,.07,.32,.6,.34,.84,.48h.02Z"/><path class="cls-1" d="M97.91,13.2c.44-.15,.59-.44,.44-.8,.4-.25,.72-.4,.96-.63,.21-.2,.28-.63,.24-1-.42-.29-.85-.56-1.28-.83-.2,.02-.4,.05-.53,.14-.36,.24-.52,.88-.28,1.4,.16,.34,.35,.62,.09,1.02-.19,.3,.06,.55,.36,.7Z"/><path class="cls-1" d="M120.48,79.39c.18,.08,.65,.27,.8,.09,.15-.18-.16-.63-.31-.75-.09-.07-.4,.02-.54,.13-.17,.14-.21,.41,.05,.53Z"/><path class="cls-1" d="M97.24,16.81c-.3-.06-.6,.18-.68,.54-.06,.31,.11,.6,.4,.68,.36,.1,.65-.06,.74-.41,.09-.37-.12-.74-.46-.81Z"/><path class="cls-1" d="M93.69,18.43c-.07,.3,.11,.57,.39,.55,.2-.02,.4-.16,.53-.21,.05-.4-.21-.68-.51-.71-.29-.03-.36,.17-.41,.38Z"/><path class="cls-1" d="M112.66,31.94c.19,.57,.75,1,1.17,.66,.42-.34,.52-.76,.65-1.26,.1-.38-.34-.63,.08-.82,.42-.19,1.22-.71,.77-1.43-.22-.36-.82-.49-1.21-.31h-.01c.11-.31,.06-.72-.17-1.03-.28-.38-.95-.46-1.4-.22-.03-.01-.06-.04-.1-.04-.4-.08-.73,.12-.79,.47-.05,.3,.12,.57,.4,.7,.03,.08,.05,.17,.1,.24,.26,.34,.96,.5,1.43,.38-.09,.16-.13,.32-.08,.47,.1,.34-.73,.34-.63,.82,.1,.46-.4,.8-.21,1.37Z"/><path class="cls-1" d="M122.77,77.47c.4-.4,.42-1.44,.04-1.78-.42-.37-1.17-.33-1.54,.07-.4,.43-.41,1.16-.02,1.53,.45,.44,1.17,.52,1.53,.18Z"/><path class="cls-1" d="M121.76,83.44c-.04-.17-.05-.48-.2-.68-.2-.28-.68-.18-.91,.12-.18,.24-.12,.59,.14,.78,.25,.18,.7,.13,.97-.22Z"/><path class="cls-1" d="M108,26.88c0-.06-.03-.17-.11-.18-.08-.02-.2,.03-.22,.14s.1,.18,.16,.19,.16-.1,.17-.15Z"/><path class="cls-1" d="M111.47,67.26c-.05,.05,.01,.3,.07,.32,.12,.03,.32,.03,.4-.05,.06-.07,.18-.32-.01-.48-.19-.16-.36,.12-.45,.21Z"/><path class="cls-1" d="M107.05,28.22c-.06,.22,.2,.36,.46,.3,.21-.05,.51-.26,.59-.45,.11-.27-.11-.4-.19-.41-.18-.03-.33,.08-.49,.19-.14,.11-.31,.18-.36,.37Z"/><path class="cls-1" d="M111.86,30.71c.05-.64-.24-1.03-.65-1.22s-.95,.29-1.23,.85c-.2,.41,.17,1.18,.6,1.3,.44,.11,1.22-.29,1.27-.93Z"/><path class="cls-1" d="M108.65,29.79c.09,.11,.36,.17,.48,.11,.16-.08,.35-.29,.35-.45,0-.43-.35-.46-.67-.51-.28,.26-.42,.55-.16,.85Z"/><path class="cls-1" d="M110.37,34.79c-.13,.11-.09,.62,0,.67,.17,.1,.54,.22,.64,.09,.1-.13,.11-.45,.02-.57-.08-.12-.52-.29-.66-.18Z"/><path class="cls-1" d="M110.38,23.61c.13-.26,.1-.51-.11-.73-.23-.24-.62-.34-.86-.15,0,0,0,.01-.01,.01,0-.16-.04-.32-.17-.51-.07-.11-.2-.17-.25-.21-.48-.23-.92-.09-1.1,.27-.02-.02-.04-.05-.07-.07-.4-.25-.6,.14-.88,.41,.18,.43,.38,.77,.84,.67,.02,0,.05-.02,.07-.04,.04,.26,.1,.51,.17,.76,.13,.43,.81,.74,1.27,.65,.25-.05,.7-.33,.61-.77,.24,0,.39-.09,.5-.3Z"/><path class="cls-1" d="M59.38,.04c.04,.05,.09,.09,.17,.11,.14,.02,.24-.05,.3-.13,.13,.09,.28,.14,.45,.17,.18,.03,.38,0,.58-.01-.12,.25,.01,.85,.3,.91,.36,.08,.63,.01,.7-.32,.28,.1,.58,.12,.8,0,.35-.19,.57-.51,.66-.87-1.32,0-2.65,.07-3.97,.16Z"/><path class="cls-1" d="M109.41,30.05c-.13-.03-.38,.07-.45,.19-.09,.15-.13,.44-.04,.56,.24,.33,.71,.16,.85,0s.02-.65-.36-.75Z"/><path class="cls-1" d="M111.68,82.71c.55-.16,.92-.84,.69-1.25-.22-.37-.55-.49-.96-.44-.43,.05-.62,.35-.64,.72-.02,.31-.23,.92,.16,1.16s.55-.14,.75-.2Z"/><path class="cls-1" d="M110.7,62.07c.29,.12,.58,.1,.8-.17,.19-.24,.12-.6-.14-.77-.24-.15-.61-.07-.79,.18-.19,.25-.13,.66,.13,.77Z"/><path class="cls-1" d="M110.77,40.19s-.04,.19-.01,.23c.04,.04,.14,.1,.21,.05,.07-.05,.12-.16,.05-.25s-.2-.05-.25-.02Z"/><path class="cls-1" d="M110.22,27.66c.32,.41,.66,.53,1.11,.36,.43-.16,.54-.51,.16-1.07-.26-.17-.66-.48-1.11-.7-.28-.14-.62-.06-.76,.26-.13,.28-.11,.57,.2,.78,.15,.1,.28,.23,.4,.38Z"/><path class="cls-1" d="M110.83,38.52c.26-.18,.34-.62,.17-.86-.19-.27-.66-.34-.94-.14-.25,.18-.3,.51-.13,.78,.22,.34,.6,.44,.9,.22Z"/><path class="cls-1" d="M111.1,53.64c.06-.11,.18-.33,.03-.47-.16-.14-.38,.05-.4,.1-.04,.12-.02,.29,.05,.39,.03,.05,.29,.03,.32-.02Z"/><path class="cls-1" d="M111.57,91.71c.08-.05,.24-.28,.08-.47s-.38,.04-.48,.11c-.06,.04-.05,.3,0,.32,.11,.06,.31,.09,.4,.03Z"/><path class="cls-1" d="M113.68,50.19c0-.32-.17-.55-.5-.64-.27-.08-.48-.01-.61,.23-.23,.41,0,.7,.3,1.01,.39-.12,.8-.14,.81-.6Z"/><path class="cls-1" d="M113.45,67.88c.08-.09,0-.3-.06-.41-.04-.06-.3-.16-.42-.04-.12,.12,.05,.37,.14,.46,.05,.06,.27,.07,.35-.01Z"/><path class="cls-1" d="M112.16,74.58c-.46-.12-.68,.17-.91,.54,.22,.34,.33,.74,.79,.63,.31-.07,.49-.3,.5-.64,0-.28-.11-.46-.38-.53Z"/><path class="cls-1" d="M112.3,86.11c.23-.19,.24-.57,.02-.79-.2-.2-.58-.19-.81,.01-.24,.21-.26,.62-.03,.78,.26,.18,.55,.22,.82,0Z"/><path class="cls-1" d="M109.1,51.82c.29-.13,.41-.4,.35-.73-.05-.27-.2-.43-.48-.44-.47-.02-.63,.31-.77,.72,.28,.29,.48,.65,.9,.45Z"/><path class="cls-1" d="M104.28,19c.26-.18,.34-.62,.17-.86-.19-.27-.66-.34-.94-.14-.25,.18-.3,.51-.13,.78,.22,.34,.6,.44,.9,.22Z"/><path class="cls-1" d="M103.58,24c.08-.34-.11-.67-.44-.74-.29-.07-.69,.16-.77,.43-.09,.31,.13,.64,.46,.72,.37,.08,.67-.08,.75-.41Z"/><path class="cls-1" d="M109.42,35.16c-.28-.39-.71-.4-1.19-.04-.27,.21-.37,.75-.18,1.01,.22,.32,1.13,.55,1.37,.36,.31-.25,.31-.9,0-1.33Z"/><path class="cls-1" d="M102.54,38.65c-.14,.1-.12,.59-.07,.79,.07,.27,.38,.3,.67,.14,.3-.16,.27-.43,.11-.6-.13-.15-.57-.42-.71-.32Z"/><path class="cls-1" d="M102.39,29.5c.23,.06,.52-.49,.49-.58-.08-.25-.14-.6-.43-.69s-.42,.27-.42,.39c.01,.24,.14,.82,.37,.88Z"/><path class="cls-1" d="M102.6,21.64c.08-.38-.15-.72-.51-.76-.3-.04-.69,.29-.72,.62-.03,.32,.23,.63,.55,.68,.33,.05,.6-.16,.67-.53Z"/><path class="cls-1" d="M103.42,29.5c-.12-.18-.51-.16-.8,.04-.22,.15-.25,.34-.1,.54,.17,.22,.39,.37,.69,.2,.23-.14,.34-.58,.21-.78Z"/><path class="cls-1" d="M113.63,77.95c.08-.09,.25-.29,.13-.46-.12-.17-.38-.03-.41,.02-.06,.11-.07,.28-.03,.39,.02,.05,.28,.09,.32,.04Z"/><path class="cls-1" d="M105.07,23.02c.26-.18,.33-.69,.11-.95-.29-.35-.79-.48-1.07-.27-.35,.25-.52,.94-.32,1.24,.18,.26,.88,.25,1.28-.02Z"/><path class="cls-1" d="M108.29,43.49c-.09,.15,.13,.35,.23,.42,.06,.04,.28,.02,.34-.08s-.06-.3-.14-.39c-.05-.05-.33-.1-.42,.05Z"/><path class="cls-1" d="M108.63,39.55c.2-.18,.33-.42,.12-.61-.16-.15-.63-.44-.83-.31-.2,.13,0,.68,.1,.88,.12,.23,.38,.26,.61,.05Z"/><path class="cls-1" d="M105.82,28.55c.3-.09,.38-.48,.21-.73s-.43-.31-.7-.19c-.23,.1-.33,.76-.12,.89s.41,.1,.62,.03Z"/><path class="cls-1" d="M120.72,93.41c-.61-.96-1.26-.87-1.84,.19-.07,0-.16,.01-.23,0-.33-.07-.5,.11-.63,.38-.12,.26-.05,.45,.12,.66,.4,.52,.7,.56,1.2,.12,.37-.33,.76-.64,1.14-.96,.07,.07,.13,.12,.18,.18,.11-.21,.2-.42,.31-.63-.08,.01-.16,.02-.25,.05Z"/><path class="cls-1" d="M125.85,78.57c.13-.03,.3-.25,.29-.38,0-.39-.28-.54-.68-.56-.2,.25-.46,.51-.19,.83,.1,.12,.39,.15,.57,.11Z"/><path class="cls-1" d="M113.93,91.25c.14-.19,.09-.4-.08-.51-.17-.11-.4,.01-.46,.1-.07,.1-.16,.28,0,.45,.17,.17,.39,.16,.54-.03Z"/><path class="cls-1" d="M123.29,79.9c-.34-.32-1.04-.32-1.32-.01-.28,.31-.23,1.04,.08,1.34,.26,.24,.84,.14,1.14-.2,.39-.45,.42-.82,.09-1.12Z"/><path class="cls-1" d="M125.62,77.13c.22-.3,.02-.84-.44-1.16-.24-.17-.69-.07-.87,.19-.23,.33-.16,.91,.12,1.1,.36,.23,.97,.17,1.19-.12Z"/><path class="cls-1" d="M124.21,75.82c.12,0,.3-.08,.34-.17,.12-.27,.18-.57,.28-.89,.69-.3,1.05-.77,.88-1.19-.17-.41-.94-.69-1.4-.51-.49,.19-.53,.48-.18,1.47-.37,.18-.77,.31-.59,.82,.11,.31,.33,.5,.66,.48Z"/><path class="cls-1" d="M50.75,4.1c.35,.03,.6-.15,.63-.46,.04-.39-.24-.88-.51-.91-.23-.02-.63,.4-.67,.71-.05,.34,.19,.62,.55,.65Z"/><path class="cls-1" d="M54.31,.94l.19-.03c.23-.15,.29-.25,.31-.41-.27,.04-.53,.08-.8,.12,.11,.11,.23,.22,.3,.32Z"/><path class="cls-1" d="M60.63,2.06c-.21-.11-.58,.04-.68,.27-.12,.29,.14,.78,.62,.67,.46-.2,.31-.81,.05-.93Z"/><path class="cls-1" d="M124.54,82.8c-.43,.2-.47,.78-.3,1.01,.1,.13,.34,.21,.6,.18,.12-.37,.24-.73,.35-1.1-.2-.15-.43-.19-.65-.09Z"/><path class="cls-1" d="M122.94,86.88c-.21,.26-.23,1.17-.03,1.36,.1,.09,.21,.15,.33,.18,.21-.51,.39-1.03,.59-1.54-.33-.23-.68-.25-.89,0Z"/><path class="cls-1" d="M109.48,59.05c.42,.16,.51-.25,.7-.35,.5-.27,.73-1.01,.42-1.36-.29-.32-.64-.37-1.04-.23-.41,.14-.53,.47-.47,.84,.05,.3-.03,.95,.39,1.11Z"/><path class="cls-1" d="M101.55,26.24c.1-.05,.32-.33,.22-.45s-.36-.09-.43-.03c-.1,.08-.3,.27-.2,.38,.1,.11,.31,.15,.41,.1Z"/><path class="cls-1" d="M126.44,75.36c-.28,.29-.26,.92,.04,1.27,.07,.07,.16,.12,.26,.16,.1-.52,.19-1.04,.28-1.56-.23-.05-.44,0-.58,.14Z"/><path class="cls-1" d="M114.87,54.1c.06-.21,.13-.78-.07-.87-.2-.1-.62,.24-.78,.41-.17,.17,0,.55,.25,.66,.25,.11,.52,.09,.6-.19Z"/><path class="cls-1" d="M115.07,62.91c.36,.19,.86,.01,1.09-.39,.22-.39,.16-.7-.17-.89-.47-.28-1.18-.18-1.37,.19-.17,.32,.07,.89,.46,1.09Z"/><path class="cls-1" d="M114.15,66.59c.1-.22,0-.41-.19-.49s-.39,.09-.43,.19c-.05,.11-.1,.31,.1,.44s.42,.08,.52-.14Z"/><path class="cls-1" d="M116.06,82.31c.18-.2,.17-.62-.02-.81-.21-.2-.7-.21-.9-.02-.2,.19-.18,.6,.04,.8,.24,.23,.69,.24,.88,.03Z"/><path class="cls-1" d="M121.24,84.87c-.22,.26-.19,.66,.06,.86,.28,.21,.72,.16,.92-.12,.18-.25,.13-.67-.11-.86-.23-.18-.67-.12-.87,.12Z"/><path class="cls-1" d="M114.2,56.62c-.24-.15-.72-.06-.88,.16-.16,.23-.05,.62,.2,.78,.28,.17,.72,.1,.87-.16,.14-.23,.04-.65-.19-.79Z"/><path class="cls-1" d="M120.16,68.91c.24-.32,.48-.62,.72-.93,.03,.08,.09,.15,.18,.21,.23,.15,.49,.22,.63-.04,.01-.02,.02-.06,.04-.09,.22,.03,.32-.16,.49-.59-.25-.4-.59-.42-.99-.18-.8-.81-1.42-.59-1.76,.57-.07,.02-.15,.05-.23,.05-.34,0-.47,.21-.54,.5-.07,.28,.04,.45,.25,.63,.5,.43,.8,.4,1.2-.13Z"/><path class="cls-1" d="M121.65,89.38c.39-.44,.37-.97-.05-1.35-.45-.41-1.29-.34-1.67,.15-.29,.37-.2,1.14,.17,1.48,.42,.38,1.07,.26,1.55-.29Z"/><path class="cls-1" d="M118.44,74.74c.28-.33,.17-.99-.22-1.31-.41-.33-.89-.24-1.26,.23-.36,.47-.32,.94,.12,1.28,.42,.32,.99,.24,1.36-.19Z"/><path class="cls-1" d="M117.3,94.88c.13-.14,.09-.44,.11-.6-.34-.31-.57-.21-.74-.04-.17,.18-.27,.47-.02,.62,.17,.1,.53,.12,.64,.01Z"/><path class="cls-1" d="M118.39,85.17c.31,.15,.6,.12,.8-.15,.29-.4-.02-1-.18-1.11-.16-.11-.84,.07-.98,.52-.09,.29,.04,.58,.36,.73Z"/><path class="cls-1" d="M71.82,.66c.03,.18,.13,.24,.31,.2,.16-.04,.23-.12,.2-.29-.01-.05-.04-.08-.06-.12-.11-.02-.23-.03-.35-.04-.08,.05-.13,.12-.1,.25Z"/><path class="cls-1" d="M88.39,10.15c.09,.32,.55,.57,.84,.46,.28-.1,.44-.6,.26-1.13-.11-.04-.33-.19-.5-.16-.41,.07-.69,.51-.6,.83Z"/><path class="cls-1" d="M75.7,11.97c.25-.08,.36-.29,.29-.57-.07-.3-.32-.47-.58-.39-.29,.09-.48,.42-.37,.69,.12,.3,.39,.37,.66,.27Z"/><path class="cls-1" d="M118.9,53.56c.1-.21-.29-.59-.45-.67-.11-.05-.39,.1-.5,.24-.14,.18-.12,.44,.15,.51,.19,.04,.69,.13,.8-.08Z"/><path class="cls-1" d="M88.05,4.92c.2,.57,.67,.92,1.05,.77,.11-.04,.2-.14,.28-.25-.01,.04-.04,.08-.04,.12-.08,.54,.17,.88,.71,.97,.5,.08,.9-.13,.94-.51,0-.03-.01-.07-.01-.11-.96-.45-1.94-.88-2.92-1.28-.03,.1-.04,.2,0,.28Z"/><path class="cls-1" d="M71.03,4.94c.31,.15,.59,.44,.86,.34,.25-.09,.33-.2,.4-.36,.07-.15,.22-.27,.21-.54s-.17-.78-.53-.98c-.36-.2-.71-.19-1-.01-.3,.18-.38,.51-.37,.74,0,.23,.12,.66,.43,.81Z"/><path class="cls-1" d="M127.44,72.49c.06-.44,.11-.89,.16-1.33-.26-.12-.47-.09-.65,.12-.35,.4-.36,.88-.02,1.14,.1,.07,.3,.09,.52,.07Z"/><path class="cls-1" d="M90,7.21c-.13,.12-.25,.36-.23,.52,.03,.26,.5,.42,.72,.25,.13-.11,.18-.32,.22-.41-.18-.39-.51-.53-.71-.36Z"/><path class="cls-1" d="M86.26,4.85s0-.02,0-.03c-.17-.61-.94-1.04-1.54-.86-.52,.15-.92,.97-.76,1.53,.04,.16,.13,.28,.25,.39,.05,.12,.12,.24,.15,.31,.24,.06,.44,.04,.58-.03,.2,.01,.42,0,.65-.07,.2-.06,.34-.18,.46-.32,.03,.02,.06,.06,.1,.07,.29,.06,.59-.15,.65-.46,.06-.28-.12-.57-.42-.55-.04,0-.07,.02-.11,.02Z"/><path class="cls-1" d="M74.5,2.18c.1-.12,.1-.3,0-.4-.09-.1-.36-.12-.48-.04s-.05,.33,.04,.43c.08,.09,.32,.13,.43,0Z"/><path class="cls-1" d="M75.35,9.15c.43-.16,.56-.54,.36-1.06-.17-.43-.54-.55-1.06-.33-.36,.15-.55,.44-.46,.73,.11,.34,.86,.77,1.16,.66Z"/><path class="cls-1" d="M78.69,4.29c.09,.5,.31,.79,.56,.77,.26-.03,.66-.56,.63-.84-.03-.24-.5-.54-.82-.51-.27,.03-.43,.28-.37,.59Z"/><path class="cls-1" d="M76.81,3.95c0,.12,.12,.31,.23,.33,.1,.02,.38,0,.41-.25s-.24-.31-.35-.32c-.09-.01-.29,.15-.29,.24Z"/><path class="cls-1" d="M127.23,68.55c.19,.11,.39,.13,.59,.1,.05-.76,.1-1.52,.12-2.28-.5-.14-1.11,.08-1.36,.57-.23,.45,.1,1.26,.65,1.6Z"/><path class="cls-1" d="M126.61,64.77c.13-.27-.04-.77-.3-.92-.46-.27-.99-.18-1.2,.21-.25,.46-.14,1.1,.22,1.31,.28,.16,1.1-.21,1.28-.59Z"/><path class="cls-1" d="M119.3,57.76c.28,.13,.71-.02,.9-.42-.08-.16-.15-.46-.33-.62-.26-.23-.7-.04-.87,.31-.13,.27,0,.6,.3,.73Z"/><path class="cls-1" d="M122.02,46.86c-.25-.37-1.06-.48-1.47-.21-.36,.24-.39,.5-.09,1.07-.08,0-.15,.02-.21,.06-.25,.15-.38,.62-.25,.86,.04,.07,.11,.13,.18,.17,.01,.07,.04,.15,.09,.24,.17,.28,.42,.42,.75,.33,.12-.03,.28-.14,.3-.23,.06-.29,.06-.6,.09-.93,.62-.43,.87-.97,.61-1.35Z"/><path class="cls-1" d="M99.31,31c.24-.15,.35-.54,.21-.77-.17-.28-.52-.36-.85-.17-.31,.17-.38,.44-.19,.74,.19,.3,.55,.39,.83,.21Z"/><path class="cls-1" d="M120.32,53.08c.33-.31,0-.56,0-.78,0-.36-.24-.7-.52-.88,.05-.04,.12-.08,.15-.13,.31-.47,.12-1.5-.33-1.75-.49-.27-1.22-.09-1.5,.39-.3,.51-.16,1.22,.3,1.5,.13,.08,.27,.14,.41,.17-.12,.14-.19,.32-.22,.54-.06,.42,.18,.68,.54,.8,.29,.09,.84,.45,1.17,.14Z"/><path class="cls-1" d="M120.96,53.55c-.4-.24-1.09-.1-1.3,.26-.21,.36-.01,1.07,.36,1.29,.3,.19,.85-.04,1.08-.44,.29-.52,.25-.89-.14-1.12Z"/><path class="cls-1" d="M120.81,58.55c-.26-.13-.68,.02-.83,.3-.16,.3-.05,.69,.23,.83,.31,.15,.74,0,.88-.31,.13-.29-.01-.69-.28-.82Z"/><path class="cls-1" d="M124.13,71.58c.46,.25,1.13-.05,1.46-.66,.23-.43,.07-.89-.4-1.16-.56-.31-1.22-.1-1.51,.49-.22,.45,0,1.08,.45,1.33Z"/><path class="cls-1" d="M126.12,68.68c-.14-.1-.62,.07-.65,.16-.06,.19-.07,.58,.08,.64s.46,0,.56-.12c.1-.11,.15-.58,.01-.68Z"/><path class="cls-1" d="M123.4,69.07c-.24-.19-.57-.17-.79,.07-.28,.3-.27,.69,.01,.92,.24,.2,.68,.18,.88-.05,.21-.25,.16-.73-.1-.94Z"/><path class="cls-1" d="M123.52,61.36c.21-.38,.04-.75-.47-1.04-.41-.24-.83-.18-.99,.14-.15,.3,.01,1.2,.25,1.34,.41,.25,.93,.07,1.21-.43Z"/><path class="cls-1" d="M122.5,66.02c.22,.07,.67,.3,.86-.02,.19-.32-.21-.64-.36-.82-.17-.2-.5-.09-.67,.18-.18,.29-.14,.56,.17,.65Z"/><path class="cls-1" d="M119.86,63.77c.49,.29,1.1,.04,1.46-.6,.29-.51,.16-1.02-.32-1.31-.53-.31-1.33-.06-1.61,.49-.21,.42,.04,1.16,.47,1.41Z"/><path class="cls-1" d="M88.62,16.56c.31,.1,.61,0,.75-.3,.07-.16,.06-.42-.02-.58-.17-.32-.46-.31-1.08-.05,0,.35-.13,.76,.35,.92Z"/><path class="cls-1" d="M88.92,8.51c.01-.1,0-.2-.02-.28,.15-.13,.52-.38,.34-.67-.18-.29-.61-.23-.82-.18-.22,.05-.25,.24-.22,.43-.53-.13-1.07-.18-1.62-.02-.08,.03-.15,.08-.21,.12-.23-.33-.6-.51-.88-.38-.4,.18-.66,.67-.66,1.11-.07,.1-.02,.3,.04,.39,.02,.02,.06,.05,.11,.07,.21,.22,.63,.33,.94,.21,.13-.05,.23-.12,.32-.19,.1,.09,.23,.17,.39,.21,.41,.12,.85,.17,1.27,.18,.45,.01,.95-.54,1.01-1Z"/><path class="cls-1" d="M89.8,12.35c.45-.16,.51-.78,.28-1.06-.23-.28-.8-.28-1.02,.19-.09,.19-.02,.54,.11,.72,.1,.14,.45,.22,.63,.15Z"/><path class="cls-1" d="M85.25,23.02c.52,.08,1.41-.5,1.53-.99,.13-.54-.35-1.18-.96-1.29-.54-.1-1.26,.37-1.36,.88-.12,.64,.26,1.32,.79,1.4Z"/><path class="cls-1" d="M86.19,14.19c-.15,.05-.2,.27-.17,.37,.02,.1,.24,.36,.38,.32s.19-.38,.15-.48c-.04-.1-.21-.26-.36-.21Z"/><path class="cls-1" d="M90.1,14.07c.31,.07,.64-.15,.71-.49,.08-.36-.1-.7-.4-.77-.33-.08-.68,.12-.76,.42-.09,.33,.14,.75,.46,.83Z"/><path class="cls-1" d="M85.13,13.3c.02,.07,.2,.19,.31,.15,.11-.04,.15-.26,.14-.39,0-.07-.19-.29-.35-.24-.16,.05-.13,.35-.1,.47Z"/><path class="cls-1" d="M90.58,21.44c.11,.02,.33-.04,.37-.19,.04-.15-.12-.31-.22-.34-.1-.04-.44,.01-.47,.16s.22,.36,.33,.38Z"/><path class="cls-1" d="M96.73,23.76c.34,.12,.65-.05,.84-.42,.1-.2,.2-.43,.37-.56,.33-.26,.49-.58,.39-.97-.04-.15-.24-.3-.47-.41,.11-.09,.26-.28,.16-.4-.12-.14-.4-.11-.48-.05-.07,.05-.11,.21-.1,.32-.1-.01-.2-.02-.27,0-.33,.09-.69,.17-.68,.65,0,.35-.03,.71-.05,1.06-.17,.38-.02,.66,.3,.77Z"/><path class="cls-1" d="M98.39,34.54c.14-.09,.15-.52,.08-.6-.11-.13-.38-.29-.51-.23s-.21,.39-.15,.53c.05,.13,.44,.39,.58,.3Z"/><path class="cls-1" d="M96.42,15.8c.44,.07,1.07-.42,1.17-.91,.09-.41-.16-.74-.63-.84-.57-.13-.91,.11-1.03,.7-.1,.49,.14,.99,.49,1.05Z"/><path class="cls-1" d="M94.59,26.54c.29-.22,.22-.11,.57,.03,.35,.14,.91,.13,.96-.54,.04-.66-.57-1.1-1.14-1.2-.57-.09-1.43,.7-1.37,1.4,.04,.5,.7,.53,.99,.3Z"/><path class="cls-1" d="M79.78,11.89c.15,.01,.4-.13,.47-.28,.13-.26-.07-.51-.3-.54-.17-.02-.62,0-.68,.36-.06,.36,.36,.45,.51,.46Z"/><path class="cls-1" d="M78.65,14.64c.23-.1,.43-.62,.25-.91s-.73-.32-.91,.04c-.08,.16,.18,.5,.32,.74,.04,.06,.12,.22,.34,.13Z"/><path class="cls-1" d="M79.63,9.75c.42-.13,.74-.59,.62-.9-.13-.35-.66-.67-.95-.57-.36,.12-.51,.67-.32,1.18,.12,.32,.35,.38,.64,.29Z"/><path class="cls-1" d="M78.4,7.48c.08-.16,.07-.43-.02-.6-.06-.11-.33-.17-.48-.15-.31,.05-.61,.16-.91,.26-.26,.09-.3,.28-.18,.55,.07,.03,.19,.13,.26,.11,.31-.09,.56,.02,.84,.11,.13,.04,.42-.14,.5-.29Z"/><path class="cls-1" d="M77.26,10.34c.3-.13,.43-.49,.29-.82-.13-.31-.51-.52-.78-.42-.28,.1-.57,.63-.48,.84,.13,.3,.67,.52,.96,.39Z"/><path class="cls-1" d="M76.53,3.62c.58-.25,.86-.65,.7-1.01-.15-.35-.84-.58-1.2-.41-.27,.13-.46,.79-.32,1.09,.13,.27,.56,.45,.82,.33Z"/><path class="cls-1" d="M76.16,4.78c-.14-.31-.64-.53-.94-.41-.36,.14-.8,.96-.67,1.25,.17,.36,.8,.52,1.29,.31,.45-.18,.56-.59,.32-1.15Z"/><path class="cls-1" d="M84.32,16.41c.53,.07,1.04-.28,1.15-.8,.14-.66-.24-1.27-.89-1.39-.56-.1-1.03,.16-1.12,.64-.13,.63,.34,1.47,.86,1.54Z"/><path class="cls-1" d="M86.68,11.5c.08-.26-.43-.58-.9-.48-.46,.1-.41,.73-.29,.93,.12,.2,1.11-.19,1.19-.45Z"/><path class="cls-1" d="M82.86,10.46c.33,.17,.97-.36,.9-.63-.07-.26-.9-.46-1.08-.15-.14,.24-.05,.66,.18,.78Z"/><path class="cls-1" d="M81.14,4.86c.12,.05,.49,.08,.58-.18,.1-.26-.27-.43-.4-.46-.13-.02-.4,0-.45,.22-.05,.23,.14,.37,.26,.42Z"/><path class="cls-1" d="M80.8,5.78c-.2-.19-.9-.1-.99,.21-.13,.43-.07,.75,.5,.78,.56,.02,.7-.79,.49-.98Z"/></g></g><circle class="cls-3" cx="64.91" cy="60.8" r="38.96"/><path class="cls-4" d="M20.59,70.18h19.62v42.9c0,5.42-4.4,9.81-9.81,9.81h0c-5.42,0-9.81-4.4-9.81-9.81v-42.9h0Z" transform="translate(77.16 6.78) rotate(45)"/><g><path class="cls-6" d="M24.32,90.32c-.14-.27-.52-.51-.93-.65l-1.55,1.55s0,.06,.02,.08c.28,.56,1.23,.91,1.76,.64,.65-.32,.98-1.09,.7-1.62Z"/><path class="cls-6" d="M27.28,97.93c.23-.27,.34-.58,.36-.89,.03-.43-.18-.81-.53-1.17-.36-.36-.35-.88-.82-1.07-.64-.25-1.74-.33-2.47,.61-.44,.57-.54,1.1-.4,1.59,.17,.57,.93,.58,1.32,1.06,.92,1.15,1.9,.62,2.55-.13Z"/><path class="cls-6" d="M22.54,97.32c-.36-.11-.71,.06-.81,.42-.06,.22-.01,.6,.14,.72,.39,.33,.8,.15,1.16-.18,0-.4-.03-.83-.49-.97Z"/><path class="cls-6" d="M27.71,91.32c-.7-.26-1.22-.05-1.54,.35-.33,.39,.03,1.14,.57,1.62,.39,.34,1.36,.18,1.62-.27,.26-.45,.05-1.43-.64-1.69Z"/><path class="cls-6" d="M25.76,103.8c-.19,.05-.3,.27-.18,.74,.12,.47,.38,.69,.88,.64,.54-.06,.94-.66,.85-1.24-.09-.59-.44-.63-.47-1.02-.03-.39-.25-.5-.66-.57-.41-.07-1.02-.16-1.11,.41-.08,.57,.28,.69,.46,.7,.17,0,.41,.28,.23,.33Z"/><path class="cls-6" d="M22.32,102.81c-.26-.09-.66,.12-.74,.39-.1,.34,.08,.5,.8,.68,.5-.29,.25-.96-.06-1.07Z"/><path class="cls-6" d="M28.82,91.5c.08,.12,.09,.29,.13,.44,.13,.5,.4,.74,.72,.66,.43-.11,.57-.52,.34-1.06-.02-.05-.1-.08-.12-.14-.1-.29-.03-.49,.31-.49,.12,0,.25,.05,.37,.05,.5-.03,.93-.38,1.1-.87,.18-.55,.06-.89-.45-1.28-.54-.41-1.13-.41-1.73-.21-.15-.28-.24-.56-.4-.77-.52-.66-1.17-.55-1.48,.24-.27,.68,.04,1.25,.77,1.38,.21,.04,.43,.01,.86,.02-.11,.32-.12,.6-.26,.72-.48,.41-.46,.83-.16,1.32Z"/><path class="cls-6" d="M27.26,109.17c-.48,.1-1.03,.06-1.41,.53,0,.22,.02,.46,.03,.69-.5,.41-.76,.98-.56,1.3,.17,.26,.44,.37,.76,.28,.57-.16,.7-.37,.68-1.07,.33-.35,.67-.63,.92-.98,.25-.34-.01-.83-.42-.75Z"/><path class="cls-6" d="M27.64,98.3c-.31,.08-.37,.39-.23,.67,.12,.25,.3,.48,.64,.35,.3-.11,.5-.55,.33-.98-.2-.02-.49-.11-.74-.05Z"/><path class="cls-6" d="M32.93,83.64c-.29-.4-.56-.8-.84-1.2-.16,.29-.23,.62-.12,.85,.14,.29,.51,.42,.95,.36Z"/><path class="cls-6" d="M32.66,85.92c.2-.23-.04-1.33-.45-1.52-.39-.18-.73-.05-1,.24-.25,.26-.35,.58-.14,.92,.28,.44,1.39,.59,1.58,.36Z"/><path class="cls-6" d="M29.56,85.37c.43-.31,.95-.58,.92-1.28-.02-.34,.05-.68,.37-.99,.29-.27,.33-.76,.21-1.11l-2.6,2.6s.02,.09,.02,.14c.04,.53,.71,.91,1.08,.64Z"/><path class="cls-6" d="M26.5,87.05c.27-.14,.36-.45,.32-.81l-.85,.85c.2,.03,.39,.04,.53-.03Z"/><path class="cls-6" d="M19.18,96.75c-.53,.22-.85,.95-.64,1.48,.19,.51,1,.75,1.61,.49,.4-.17,.55-.68,.35-1.19-.21-.51-.93-.94-1.32-.78Z"/><path class="cls-6" d="M21.64,93.24c-.45-.05-.91-.2-1.13,.33-.02,.04-.03,.1-.03,.15-.31-.13-.76-.16-1.08-.06l-.49,.49c-.03,.17,0,.35,.09,.54,.3,.55,.87,.81,1.28,.57,.32-.19,.53-.47,.59-.77,.23,.12,.5,.06,.71-.1,.38-.3,.21-.72,.07-1.14Z"/><path class="cls-6" d="M17.31,104.76c-.26-.09-.66,.12-.74,.39-.1,.34,.26,.88,.8,.68,.5-.29,.25-.96-.06-1.07Z"/><path class="cls-6" d="M22.04,106.1c-.11,.09-.31,.19-.23,.4,.09,.22,.28,.18,.36,.14,.12-.06,.42-.25,.34-.44-.08-.19-.4-.16-.47-.11Z"/><path class="cls-6" d="M18.04,101.13c-.11,.11-.21,.22-.33,.33-.21-.21-.39-.43-.6-.6-.4-.34-.67-.33-1.06,.01-.36,.32-.47,.73-.32,1.18,.15,.44,.53,.6,.95,.61,.3,.01,.6-.09,.92-.15,.11,.1,.21,.22,.32,.31,.44,.35,1.15,.46,1.55,.17,.48-.34,.68-.87,.66-1.45,0-.19-.14-.43-.29-.54-.6-.47-1.27-.41-1.81,.12Z"/><path class="cls-6" d="M30.26,101.86c.18-.06,.25-.17,.19-.36-.06-.19-.17-.27-.37-.21-.2,.06-.27,.18-.19,.38,.06,.2,.18,.26,.38,.19Z"/><path class="cls-6" d="M38.25,94.9c-.51,.29-.7,.72-.57,1.24-.05,.02-.1,.03-.14,.06-.49,.29-.68,1.1-.4,1.67,.27,.54,1.17,.85,1.69,.59,.5-.25,.81-.79,.78-1.27,.52-.35,.77-1.12,.51-1.62-.4-.76-1.2-1.04-1.87-.66Z"/><path class="cls-6" d="M37.51,92.75c-.11,.21-.11,.49,.02,.74,.19,.34,.63,.48,.94,.3,.32-.19,.44-.74,.23-1.06-.03-.04-.05-.07-.09-.11,.52-.33,.77-1.08,.52-1.58-.3-.58-1.04-.9-1.55-.68-.55,.24-.94,1.43-.64,1.95,.12,.21,.33,.35,.57,.43Z"/><path class="cls-6" d="M37.71,100.43c-.23,.16-.27,.81-.06,1.1,.18,.26,.52,.28,.8,.05,.45-.37,.63-.75,.46-.99-.18-.25-.93-.35-1.2-.16Z"/><path class="cls-6" d="M37.2,88.98c-.18-.25-.79-.11-.62-.66,.08,0,.15-.01,.22-.02-.2-.21-.4-.41-.6-.63v.15c-.14-.09-.26-.16-.37-.25-.34-.24-.43-.46-.28-.65-.43-.5-.86-1-1.26-1.51-.03,.21-.03,.42-.01,.62,.03,.33,.02,.59-.25,.78-.4,.29-.34,.62-.05,.98-1.05,.16-1.52,.68-1.49,1.58,.02,.71,.4,.97,1.31,1.02,.28,.36,.46,.71,.74,.92,.36,.28,.9,.22,1.12-.1,.29-.43,.53-.9,.81-1.37,.7-.03,.74-.07,.74-.87Z"/><path class="cls-6" d="M43.07,97.74l.88-.88c-.21,0-.41,.04-.57,.13-.23,.13-.33,.43-.31,.75Z"/><path class="cls-6" d="M41.44,97.92c-.37,.16-.55,.57-.41,.91,.1,.23,.34,.36,.61,.35l.7-.7c0-.08-.02-.15-.06-.23-.17-.36-.48-.49-.83-.34Z"/><path class="cls-6" d="M34.89,102.88c-.29,.18-.42,.96-.22,1.28,.18,.29,.7,.43,.98,.27,.62-.36,.89-.86,.66-1.25-.21-.37-1.04-.55-1.42-.3Z"/><path class="cls-6" d="M43.79,94.35c-.38-.26-.75-.53-1.12-.81-.05,.13-.07,.27-.05,.4-.18-.2-.33-.4-.44-.67-.07-.17-.39-.32-.6-.34-.35-.02-.67-.11-1-.19-.46-.11-.9,.16-1.01,.56-.16,.59-.02,.94,.53,1.1,.29,.09,.62,.04,.99,.06,.05,.17,.1,.35,.15,.52,.1,.34,.35,.52,.67,.54,.43,.02,.69-.27,.9-.62,.13-.21,.16-.41,.09-.6,.25,.14,.6,.17,.88,.02Z"/><path class="cls-6" d="M28.93,111.88l.32-.32c-.06-.02-.12-.03-.2,0-.14,.05-.15,.2-.12,.32Z"/><path class="cls-6" d="M34.25,105.46c-.4,.21-.79,1.2-.6,1.51,.02,.04,.07,.06,.1,.09l1.45-1.45c-.27-.21-.69-.3-.95-.16Z"/><path class="cls-6" d="M30.42,104.78c-.44-.18-.83-.12-1.15,.12s-.36,.63-.32,.9,.23,.74,.6,.87c.37,.13,.73,.42,1.03,.27,.28-.13,.34-.28,.41-.46,.06-.18,.21-.34,.16-.65-.05-.31-.3-.86-.73-1.05Z"/><path class="cls-6" d="M30.91,98.03c-.7,.21-1.05,.72-.96,1.62,.25,.13,.51,.31,.8,.39,.49,.14,1.03-.1,1.19-.46,.23-.51,.15-1.12-.29-1.42-.19-.13-.52-.19-.74-.13Z"/><path class="cls-6" d="M30.45,97.37c.78-.27,.9-.93,.85-1.43-.05-.5-.58-1.34-1.48-1.04-.9,.29-1.27,.96-1.12,1.54,.15,.57,1.13,1.15,1.75,.94Z"/><path class="cls-6" d="M33.1,93.35c.04-.21,0-.48-.11-.71,.4-.22,.55-.65,.35-1-.17-.29-.6-.42-.88-.28-.25,.13-.4,.45-.4,.74-.28,.05-.5,.22-.57,.32-.24,.32-.12,.62,0,.93,.11,.28,.14,.6,.52,.74,.45,.16,.99-.26,1.09-.74Z"/><path class="cls-6" d="M32.54,102.62c-.12,.11-.02,.38,.11,.48,.1,.09,.39,.11,.49-.05,.1-.15,.08-.35-.04-.46-.12-.1-.43-.09-.55,.02Z"/><path class="cls-6" d="M35.45,96.55c.57-.22,.76-1.02,.45-1.59-.28-.52-1.2-.67-1.89-.3-.51,.27-.69,.91-.35,1.43,.56,.85,.88,.82,1.8,.47Z"/><path class="cls-6" d="M34.52,101.22c.56-.25,.66-.58,.36-1.2-.26-.55-.69-.78-1.08-.58-.36,.18-.71,1.13-.54,1.45,.24,.45,.72,.58,1.27,.33Z"/></g><circle class="cls-4" cx="69.99" cy="56.95" r="45.67"/><circle class="cls-5" cx="69.99" cy="56.95" r="29.03"/><g><path class="cls-6" d="M101.35,66.57c.49-.19,.81-1.05,.56-1.52-.17-.31-.79-.41-1.26-.19-.48,.22-.74,.74-.55,1.12,.22,.44,.86,.74,1.25,.59Z"/><path class="cls-6" d="M101.01,60.02c.77-.39,1.12-1.15,.81-1.72-.08-.15-.22-.29-.38-.39,.19-.04,.34-.18,.45-.4,.17-.36,.08-.71-.18-.93-.41-.34-.8-.03-1.23,.18,.03,.35,.05,.67,.21,.89-.2-.02-.4,0-.57,.09-.55,.28-.85,1.2-.58,1.77,.27,.56,.94,.79,1.47,.52Z"/><path class="cls-6" d="M103.33,62.51c.71-.36,1.14-1.21,.88-1.75-.28-.58-1.3-.93-1.86-.63-.54,.29-.8,1.22-.5,1.8,.3,.57,.98,.84,1.48,.58Z"/><path class="cls-6" d="M104.28,57.21c-.33-.67-.83-.97-1.27-.76-.34,.16-.62,.96-.46,1.29,.17,.34,.97,.51,1.43,.3,.35-.16,.47-.49,.3-.83Z"/><path class="cls-6" d="M94.58,28.99c-.25-.02-.45,.43-.38,.73,.1,.37,.82,.5,1.01,.14,.2-.36-.15-.83-.64-.87Z"/><path class="cls-6" d="M90.46,23.05c-.14,.09-.21,.33-.17,.45,.04,.12,.34,.41,.48,.31,.15-.1,.15-.4,.1-.48-.08-.13-.26-.37-.41-.28Z"/><path class="cls-6" d="M94.54,26.66s-.03-.06-.06-.08c-.3-.27-.41-.58-.51-.94-.22-.83-.94-1.2-1.78-.98-.19,.05-.4,.05-.45,.06-.48-.25-.77-.12-.97,.13-.23,.28-.12,.58,.07,.85,.2,.3,.39,.61,.6,.9,.23,.32,.45,.67,.95,.62,.12-.01,.28,.08,.37,.17,.27,.27,.48,.44,.67,.52,0,.02,.01,.05,.02,.07,.17,.33,.74,.47,1.06,.26,.44-.28,.66-.83,.46-1.18-.09-.16-.25-.28-.44-.39Z"/><path class="cls-6" d="M104.07,54.46c0-.07-.04-.19-.13-.21-.09-.02-.23,.04-.24,.17s.12,.2,.19,.21c.07,.01,.18-.12,.19-.18Z"/><path class="cls-6" d="M99.7,61.31c-.19-.35-.55-.59-.92-.69-.11,.84-.25,1.68-.43,2.51,.22,0,.45-.04,.69-.17,.75-.4,1-1.03,.67-1.66Z"/><path class="cls-6" d="M89.74,28.24c.18,.28,.41,.21,.63,.1,.32-.15,.44-.51,.21-.74-.16-.17-.35-.37-.57-.33s-.46,.67-.28,.97Z"/><path class="cls-6" d="M98.53,64.27c-.19,.12-.51,.38-.38,.66s.52,.33,.78,.34c.29,0,.42-.42,.3-.71-.15-.39-.46-.44-.7-.29Z"/><path class="cls-6" d="M100.04,29.61c.14,.24,.41,.43,.72,.52-.09,.1-.15,.23-.15,.32,0,.16,.07,.51,.43,.65s1.06-.39,.97-.74c-.03-.13-.16-.22-.32-.28,.26-.14,.37-.51,.3-.86,0,0,0,0,.01,0,.7-.13,1.07-.76,.82-1.43-.32-.84-.83-1.15-1.78-1.08l-.06,.05c-.13,.17-.28,.32-.39,.5-.23,.4-.34,.83-.04,1.23-.44,.25-.69,.79-.51,1.12Z"/><path class="cls-6" d="M106.57,34.25c-.18,.89,.1,1.53,.7,1.79,.18,.4,.53,.58,.9,.53-.33,.15-.57,.47-.66,.98-.07,.38-.02,.69,.1,.93-.13,.1-.22,.22-.21,.32,.04,.3,.8,.66,1.06,.37,.04-.05,.07-.11,.1-.18,.02,0,.04,0,.05,0,0,.18,.06,.38,.14,.59,.46,.05,.9,.23,1.13-.26,.15-.33,.07-.65-.21-.9,.11-.17,.19-.37,.23-.61,.1-.57-.4-1.2-1.04-1.33-.14-.03-.27-.02-.4,0,.09-.04,.17-.09,.25-.16,.37-.31,.7-.71,.97-1.11,.12-.17,.14-.42,.11-.66-.19-.34-.38-.68-.58-1.02-.15-.08-.33-.15-.52-.14-.18-.14-.4-.24-.64-.28-.75-.14-1.29,.28-1.47,1.15Z"/><path class="cls-6" d="M103.84,28.86c-.18,.7,.2,1.53,.92,1.89,.83,.42,1.2,.02,1.72,.34,.42,.26,.73,.18,1.09-.11-.72-1.05-1.49-2.07-2.31-3.07-.22-.05-.42-.06-.6,0-.19-.27-.49-.38-.79-.25-.32,.13-.49,.53-.37,.84,.07,.17,.2,.29,.35,.36Z"/><path class="cls-6" d="M108.92,41.45c-.08,.49,.35,1.04,.88,1.14,.52,.1,1.19-.33,1.26-.82,.09-.58-.3-1.23-.77-1.3-.48-.06-1.31,.52-1.38,.98Z"/><path class="cls-6" d="M105.25,57.17c.36-.21,.5-.67,.31-1.02-.19-.35-.7-.51-1.02-.31-.32,.19-.45,.74-.25,1.05,.21,.34,.64,.47,.95,.28Z"/><path class="cls-6" d="M111.58,38.07c-.17-.37-.34-.73-.52-1.09-.05,.08-.1,.17-.12,.25-.06,.29,.27,.69,.64,.84Z"/><path class="cls-6" d="M93.97,31.2c.35-.42-.07-.71-.34-1.06-.52,.14-.93,.32-.88,.86,.02,.18,.27,.47,.43,.48,.27,.01,.64-.09,.79-.28Z"/><path class="cls-6" d="M101.44,26.04c.09,.02,.18,0,.28,0l.06-.05c.25-.29,.54-.57,.74-.89,.03-.04,.03-.11,.02-.18-.08-.09-.16-.18-.25-.26-.17-.17-.34-.32-.5-.48-.3-.07-.63-.06-.91,.05-.39,.15-.49,.42-.45,.8,.06,.55,.39,.88,1.02,1.02Z"/><path class="cls-6" d="M101.65,31.87c-.06,.49,.2,.92,.57,1.08,.25,.34,.68,.4,1.2,.13,.44-.23,.63-.62,.47-.98-.07-.15-.24-.29-.44-.41-.09-.23-.32-.39-.66-.44-.62-.1-1.09,.16-1.14,.62Z"/><path class="cls-6" d="M111.08,42.76c.18,.3,.76,.41,1.07,.2,.3-.2,.4-.66,.21-.98-.19-.33-.57-.42-.96-.22-.4,.21-.54,.65-.32,1Z"/><path class="cls-6" d="M113.42,45.01c.18,.03,.39-.07,.59-.23-.15-.53-.3-1.07-.47-1.6-.57,0-1.02,.23-1.08,.63-.07,.44,.48,1.12,.96,1.2Z"/><path class="cls-6" d="M105.84,58.02c-.15-.03-.43,.1-.5,.24-.09,.18-.12,.51-.02,.64,.29,.36,.82,.15,.97-.04,.15-.19,0-.75-.45-.84Z"/><path class="cls-6" d="M106.44,65.18c.54-.31,.67-.78,.37-1.33-.28-.51-.76-.71-1.13-.49-.5,.3-.77,1.2-.5,1.63,.21,.33,.85,.42,1.27,.18Z"/><path class="cls-6" d="M107.17,52.01c-.45-.29-.81-.22-1.03,.18-.36-.12-.64-.23-.91-.32,.06,0,.13,0,.19,0,.31-.08,.9-.48,.6-1.07-.92-.62-.27-1.07-.78-1.73-.09-.12-.24-.19-.3-.23-.77-.33-1.4,.11-1.34,.9,.04,.49,.16,.98,.33,1.44,.1,.29,.41,.5,.76,.61-.34,.05-.73,.3-.98,.58,.02-.27-.06-.56-.25-.86-.53-.84-.93-.97-1.68-.6-.7,.38-.88,1.12-.46,1.92,.03,.05,.06,.1,.1,.15-.36-.16-.8-.2-1.12-.05-.11,.05-.19,.14-.25,.26-.19,.15-.32,.38-.36,.69-.08,.6,.22,1.1,.67,1.14,.35,.03,.71-.15,.98-.41,.03-.01,.06-.01,.09-.02,.45-.2,.75-.77,.57-1.11-.02-.05-.06-.09-.09-.13,.37,.15,.83,.14,1.2-.07,.14-.08,.26-.18,.36-.29,.04,.55,.55,1.26,1.03,1.41,.48,.15,1.15-.16,1.45-.75,.2-.39,.3-.75,.86-.81,.4-.04,.45-.44,.37-.83Z"/><path class="cls-6" d="M112.59,51.41c.43,.09,.77-.1,.87-.48,.08-.33-.14-.71-.46-.79-.37-.1-.75,.14-.85,.52-.11,.4,.05,.67,.45,.76Z"/><path class="cls-6" d="M109.4,45.81c.36,.03,.74-.26,.8-.61,.05-.34-.28-.73-.65-.76-.37-.03-.68,.27-.71,.69-.03,.39,.18,.65,.56,.69Z"/><path class="cls-6" d="M111.86,50.25c.32-.17,.46-.53,.33-.85-.17-.4-.52-.54-.9-.37-.4,.18-.58,.64-.4,1,.16,.32,.59,.41,.97,.22Z"/><path class="cls-6" d="M106.55,40.92c-.31-.08-.64,.06-.82,.3-.15-.02-.29-.02-.42,.01-.02-.06-.04-.12-.07-.17-.3-.68-.86-.72-1.49-.59-.13-.38-.08-.87-.66-.86-.37,0-.6,.21-.67,.53-.26-.13-.55-.2-.71-.15-.36,.13-.57,.63-.47,1.19,.03,.18,.08,.36,.12,.54-.34,.31-.73,.6-.82,1.01-.11-.01-.22-.01-.33,0-.05,0-.1,.02-.15,.03,.26-.68-.09-1.33-.64-1.73-.6-.43-2.16-.09-2.56,.47-.4,.55,.12,1.22,.03,1.39-.07,.13-.71,.16-1.23,.47,.56,1.05,1.04,2.14,1.46,3.24,.3-.04,.63-.17,.89-.39,.2,.16,.47,.2,.7,.08,.3-.16,.48-.68,.33-.96-.1-.2-.32-.31-.54-.32-.07-.53-.32-1.08-.21-1.23,.09-.13,.58-.12,1.02-.29-.09,.19-.13,.4-.09,.57,.12,.5,.95,1.07,1.63,.78,.41-.18,.65-.43,.78-.71,.06,.02,.12,.03,.18,.04,.73,.16,1.08-.27,1.35-.85,.38,.12,.75,.45,1.09-.03,.07-.09,.1-.19,.12-.28,.16,0,.33,0,.47-.06,.06,.09,.12,.19,.19,.27,.32,.41,1.31,.42,1.64,.02,.14-.17,.2-.45,.19-.74,.14-.09,.25-.25,.3-.45,.04-.16,.01-.32-.03-.48,.05,.08,.11,.14,.16,.15,.23,.04,.58,0,.72-.15,.28-.31,.02-.61-.19-.86-.44-.05-.77,.09-.81,.54,0,.02,0,.05,.01,.07-.11-.18-.27-.32-.47-.38Zm-3.5,.82l-.28-.03c.11-.13,.22-.26,.33-.38-.02,.13-.04,.27-.05,.4Zm.08-.64s-.03-.08-.04-.12l.05,.02v.1Z"/><path class="cls-6" d="M81.76,21.99c.21-.72-.46-1.14-.81-1.34-.35-.2-1,.46-.99,1.1,0,.41,.24,.62,.6,.71,.48,.12,1.1-.11,1.2-.47Z"/><path class="cls-6" d="M88.94,33.68c.09,.1,.21,.18,.37,.21,.74,.13,1.27-.1,1.36-.58,.07-.37-.41-1.07-.77-1.13-.28-.05-.7,.26-.93,.62-.04-.05-.08-.1-.14-.13-.3-.19-.64-.21-.92,.11-.14,.16-.31,.29-.48,.4-.15,.09-.26,.19-.36,.29,.42,.31,.84,.63,1.25,.96,.19-.22,.41-.47,.62-.76Z"/><path class="cls-6" d="M82.49,30.02c-.24-.01-.49,.16-.67,.41,.57,.25,1.13,.52,1.69,.81-.04-.55-.55-1.19-1.02-1.22Z"/><path class="cls-6" d="M74.6,25.05c-.06,.54,.36,1.16,.87,1.27,.39,.08,.96-.44,1.07-.97,.1-.51-.18-.98-.63-1.06-.58-.1-1.26,.29-1.31,.76Z"/><path class="cls-6" d="M87.86,28.38c.31-.16,.41-.44,.31-.77-.08-.28-.82-.49-1-.27-.18,.22-.17,.45-.12,.7,.06,.35,.5,.51,.81,.34Z"/><path class="cls-6" d="M85.05,31.62c.07,.19,.29,.44,.47,.47,.4,.06,.53-.21,.62-.51,.11,.08,.23,.15,.35,.17,.64,.11,1.51-.51,1.6-1.14,.08-.61-.52-1.36-1.16-1.46-.64-.09-1.25,.3-1.34,.85-.06,.35,0,.7,.13,1-.15-.04-.3-.03-.48,.08-.13,.09-.25,.39-.19,.53Z"/><path class="cls-6" d="M85.96,25.18c.08,.14,.23,.26,.39,.29,.4,.11,.63-.12,.64-.4,.01-.23,0-.64-.31-.69-.09-.02-.17,0-.24,.03-.02-.05-.03-.1-.05-.15-.14-.27-.35-.34-.6-.19-.28,.17-.48,.39-.33,.75,.08,.18,.29,.31,.5,.36Z"/><path class="cls-6" d="M77.73,26.78c-.49,.54-.63,1.29,0,1.74,.72,.53,1.4,.33,1.84-.22,.64-.8-.29-1.3,.29-1.65,.58-.34,.64,.34,1.43-.2,.78-.54,.79-1.54,.17-1.8-.62-.26-1.06,.13-1.18,.03s-.54-.69-.97-.38c-.92,.65-.12,1.32-.34,1.6-.21,.28-.89,.49-1.24,.87Z"/><path class="cls-6" d="M75.13,22.67c-.31,.04-.4,.39-.25,.75,.14,.36,.45,.36,.67,.21,.19-.13,.56-.59,.47-.76-.03-.06-.14-.1-.26-.14,.01,0,.02,0,.04,0,.22,0,.82-.07,.82-.39s-.49-.64-.71-.68c-.32-.06-.57,.19-.61,.55-.03,.26,.09,.4,.26,.47-.16-.02-.31-.03-.41-.02Z"/><path class="cls-6" d="M111.05,48.17c.41,.24,1.02-.08,1.2-.54,.15-.38,.04-.99-.3-1.24-.47-.34-.98-.09-1.12,.03-.34-.52-1.08-.77-1.58-.51-.52,.27-.8,.71-.8,1.19-.2-.16-.47-.26-.81-.21-.94,.13-1.42,.72-1.38,1.31,.03,.39,.43,.86,.88,1.09-.27,.2-.36,.52-.22,.81,.15,.31,.6,.44,.96,.28,.35-.16,.51-.58,.35-.92-.02-.04-.04-.08-.07-.12,.04-.02,.07-.05,.11-.07,.05,.14,.12,.26,.22,.29,.22,.07,.54-.33,.63-.51,.1-.2-.05-.5-.26-.61,.02-.09,.04-.17,.04-.25,0-.03,0-.06,0-.09,.22,.18,.5,.24,.81,.19,.04,.02,.08,.05,.13,.06,.27,.05,.7-.12,1-.36,.05,.07,.11,.13,.21,.19Z"/><path class="cls-6" d="M114.26,51.96c.18,.28,.41,.21,.63,.1,.32-.15,.44-.51,.21-.74-.16-.17-.42-.24-.57-.33-.4,.24-.46,.67-.28,.97Z"/><path class="cls-6" d="M95.11,33.18c.08-.39-.32-.83-.82-.93-.55-.11-.94,.16-1.12,.71-.29-.48-.76-.4-1.19-.36-.33,.76-.32,1.09,.05,1.34,.28,.19,.57,.19,.85-.02,.11-.08,.19-.2,.26-.32,.08,.32,.28,.59,.53,.63,.05,0,.11,0,.16,0-.34,.21-.6,.59-.65,1.01-.02,.16,0,.32,.02,.46-.47-.29-1.34-.3-1.75,0-.34,.25-.48,.82-.33,1.35,.4,.42,.78,.85,1.15,1.29h0c.4-.3,.74-.48,.99-.72,.3,.18,.72,.25,.99,.13,.31-.14,.44-.79,.25-1.19,.91,.04,1.23-.22,1.37-1.01,.06-.46-.1-.84-.41-1.11,.17-.22,.18-.53,0-.79-.11-.16-.24-.32-.38-.4,0-.03,.03-.06,.03-.09Zm-1.51,3.18s-.02,.02-.04,.03c0-.04,0-.08-.01-.12,.03,.03,.08,.04,.12,.07-.02,.01-.04,.01-.07,.03Z"/><path class="cls-6" d="M73.09,24.72c-.09,.06-.19,.09-.22,.15-.02,.04,.07,.19,.09,.18,.09-.02,.24-.02,.27-.11,.03-.1-.08-.13-.14-.21Z"/><path class="cls-6" d="M108.92,51.1c-.43,.21-.55,.67-.3,1.17,.29,.6,.75,.74,1.37,.42,.51-.27,.79-.83,.59-1.19-.25-.44-1.14-.66-1.65-.4Z"/><path class="cls-6" d="M112.77,47.74c-.07,.37,.33,.79,.8,.85,.63,.07,1.07-.23,1.16-.79-.05-.26-.11-.52-.17-.78-.11-.18-.26-.31-.43-.33-.56-.07-1.25,.47-1.35,1.05Z"/><path class="cls-6" d="M99.03,52.94c-.07-.14-.19-.22-.33-.27,.05,.37,.1,.74,.14,1.11,.25-.2,.34-.55,.19-.84Z"/><path class="cls-6" d="M98.27,47.55c-.21-.44-.68-.71-1.03-.61,.22,.61,.43,1.22,.61,1.84,.47-.29,.65-.76,.42-1.23Z"/><path class="cls-6" d="M95.36,38.26c-.51,.25-.73,1.03-.46,1.63,.3,.66,.9,.83,1.65,.46,.23-.11,.39-.25,.52-.39,.22,.1,.48,.16,.77,.17,.51,.02,.86,.4,1.33,.2,.34-.14,.74-.41,1.02-.81,.2,.11,.43,.14,.63,.05,.38-.17,.61-.89,.41-1.3-.13-.28-.42-.39-.74-.31-.11-.58-.37-.97-.77-1.2-.2-.12-.42-.11-.64-.06,.26-.3,.35-.79,.16-1.18-.23-.48-.97-.76-1.4-.54-.36,.18-.6,.58-.65,.94-.13-.02-.26,0-.38,.1-.21,.17-.46,.48-.45,.71,.02,.28,.15,.42,.35,.5-.22,.22-.34,.53-.39,.87-.3-.05-.63-.02-.97,.16Zm2.4-1.48c.11,.05,.22,.09,.33,.12-.01,0-.03,0-.04,0-.11-.02-.22-.02-.32-.02,.01-.03,.02-.07,.03-.1Z"/><path class="cls-6" d="M93.82,40.37c.59,.84,1.13,1.71,1.62,2.6,.09-.08,.18-.17,.25-.3,.45-.83,.25-1.57-.25-1.88-.11-.07-.25-.1-.41-.12-.31-.25-.72-.34-1.17-.27-.01-.01-.03-.02-.04-.03Z"/><path class="cls-6" d="M95.85,32.15c.38,.05,.68-.22,.75-.65,.06-.38-.16-.73-.49-.78-.34-.06-.81,.35-.84,.71-.03,.35,.23,.67,.58,.72Z"/><path class="cls-6" d="M99.72,50.1c-.24-.57-.89-.8-1.46-.51-.07,.03-.11,.07-.17,.1,.2,.76,.36,1.54,.49,2.31,.2,.01,.39,0,.54-.08,.48-.22,.82-1.28,.59-1.82Z"/><path class="cls-6" d="M99.38,30.05c-.56-.2-1.07-.03-1.33,.42-.06,.1-.1,.21-.13,.32-.05,.01-.11,.01-.15,.03-.33,.15-.57,.71-.42,1.01,.01,.02,.03,.04,.04,.06-.37,.24-.7,.59-.77,.94-.1,.51,.55,1.42,1.12,1.55,.6,.14,1.17-.25,1.28-.88,.09-.52,.08-.92,0-1.23v-.03c.5-.07,.99-.49,1.08-1.15,.07-.53-.21-.86-.71-1.03Z"/><path class="cls-6" d="M105.24,33.13c.16-.07,.5-.44,.42-.65-.08-.21-.59-.24-.78-.21-.29,.05-.47,.55-.26,.74,.13,.13,.45,.19,.62,.12Z"/><path class="cls-6" d="M89.71,35.52c.31,.2,.82,.28,1.08,.12,.31-.2,.45-.99,.25-1.37-.19-.35-.57-.43-.96-.22-.09,.05-.14,.1-.21,.14-.1-.06-.2-.11-.31-.12-.4-.03-.75,.24-.79,.6,0,.05,0,.1,.01,.14,.27,.23,.54,.46,.8,.7,.04,0,.08,0,.12-.01Z"/><path class="cls-6" d="M99.38,24.12c-.26,.09-.44,.35-.25,.66,.17,.27,.38,.49,.75,.34,.29-.12,.41-.85,.23-1s-.48-.09-.73,0Z"/><path class="cls-6" d="M103.39,33.47c-.53,.17-.93,.36-1.19,.73-.01-.08-.04-.16-.09-.25-.08-.13-.21-.22-.36-.28-.15-.45-.57-.88-.99-.94-.33-.05-.75,.31-.84,.71-.14,.65,.16,1.16,.74,1.26,.11,.02,.21,.01,.32,0,.21,.24,.58,.3,.9,.1,.03-.02,.05-.04,.07-.06-.04,.17-.06,.35-.05,.53-.24,.07-.44,.27-.47,.52-.05,.34,.26,.79,.58,.84,.22,.03,.44-.07,.57-.25,.47,.25,1.06,.37,1.12,.56,.07,.24-.69,1.07-.33,1.84,.36,.77,1.18,.91,1.88,.68,.7-.23,1.34-1.7,1.13-2.35-.21-.65-1.06-.62-1.14-.79-.09-.17,.58-1.07,.29-1.86-.29-.79-1.58-1.17-2.15-.99Z"/><path class="cls-6" d="M97.88,24.98c-.33-.5-.75-.87-1.47-.67-1,.29-1.11,1.13-.9,1.52,.2,.39,.73,.58,.77,.87,.04,.29-.34-.24-.51,.72s1.02,1.91,1.75,1c.11-.14,.92,.69,1.56-.07,.33-.39,.46-.76,.4-1.09,0-.12-.02-.24-.08-.34-.06-.1-.14-.18-.24-.23-.08-.09-.18-.17-.3-.25-.23-.15-.41-.45-.59-.79v-.02c.04-.27-.15-.57-.39-.65Z"/><path class="cls-6" d="M105.99,46.2c.09-.67-.24-1.13-.84-1.18-.6-.05-1,.28-1.08,.88,0,.05,0,.1,0,.15-.07-.23-.15-.45-.38-.59-.58-.36-1.65-.63-2.54,.15-.12,.11-.22,.21-.3,.32,0-.15-.06-.3-.21-.44-.12-.1-.46-.14-.54-.05-.17,.17-.35,.47-.3,.67,.08,.39,.45,.37,.77,.35-.07,.21-.1,.42-.08,.63,.06,.59,.81,.73,1.11,1.28,.05,.1,.11,.19,.17,.27-.23,.05-.4,.19-.49,.49-.1,.33-.02,.66,.32,.75,.26,.07,.66,.09,.84-.06,.21-.18,.25-.37,.2-.58,.51,.08,1.04-.19,1.48-.54,.28-.22,.44-.51,.51-.82,.07-.29,.02-.58-.11-.87,.08,.06,.17,.11,.26,.12,.44,.06,1.16-.5,1.21-.95Z"/><path class="cls-6" d="M107.36,44.38c-.33,.17-.49,.62-.33,.96,.16,.35,.48,.46,.85,.31,.4-.16,.57-.54,.42-.9-.15-.35-.62-.54-.94-.37Z"/><path class="cls-6" d="M88.97,29.58c-.13,.85,.27,1.58,.92,1.67,.17,.02,.36,0,.54-.07-.08,.18-.05,.38,.06,.6,.19,.35,.52,.48,.86,.4,.52-.13,.49-.63,.58-1.1-.3-.19-.57-.35-.84-.35,.13-.16,.23-.33,.26-.51,.1-.61-.47-1.4-1.09-1.51-.61-.11-1.19,.29-1.28,.88Z"/><path class="cls-6" d="M100.24,79.93c-.46,.14-.72,.68-.58,1.02,.14,.35,.7,.57,1.02,.41,.31-.15,.42-.74,.15-1.33-.14-.03-.4-.17-.6-.11Z"/><path class="cls-6" d="M101.11,77.4c-.14,.15-.24,.44-.19,.63,.07,.29,.63,.41,.85,.18,.14-.14,.16-.39,.2-.49-.25-.42-.65-.54-.86-.32Z"/><path class="cls-6" d="M99.98,78.71c.15-.17,.56-.51,.31-.82-.25-.31-.72-.18-.95-.1-.31,.11-.25,.45-.11,.71,.16,.3,.56,.43,.76,.21Z"/><path class="cls-6" d="M99.88,75.77c.38-.2,.59-.99,.39-1.41-.17-.35-.95-.52-1.33-.3-.3,.17-.49,.69-.36,.97,.3,.63,.89,.96,1.3,.74Z"/><path class="cls-6" d="M106.67,75.81s.11-.17,.09-.18c-.07-.06-.15-.18-.25-.15-.1,.04-.06,.14-.09,.24,.1,.04,.18,.1,.25,.09Z"/><path class="cls-6" d="M102.42,74.27c-.26,.19-.23,.77-.13,.98,.14,.29,.49,.35,.81,.17,.34-.19,.29-.5,.12-.71-.14-.18-.54-.62-.8-.43Z"/><path class="cls-6" d="M106.76,69.73c0-.89-.55-1.32-1.26-1.36-1.02-.05-.88,1-1.5,.73-.62-.27-.1-.72-1-1.04s-1.71,.27-1.55,.92c.15,.65,.73,.78,.72,.94s-.24,.84,.26,1.01c1.07,.36,1.14-.68,1.49-.67s.92,.43,1.43,.49c.72,.08,1.41-.25,1.41-1.02Z"/><path class="cls-6" d="M97.82,68.78c.21-.05,.7,.08,.88-.27,.18-.35-.55-1.28-.74-1.36-.16-.07-.57-.09-.66-.35-.34,.95-.74,1.88-1.18,2.8,.43,.39,1.11,.43,1.36,.05,.33-.5,.13-.81,.34-.86Z"/><path class="cls-6" d="M96.41,84.44c-.18,.08-.1,.42-.05,.55,.03,.08,.26,.19,.37,.13,.12-.06,.13-.32,.11-.46-.01-.08-.25-.3-.43-.22Z"/><path class="cls-6" d="M91.75,76.15c-.3,.34-.62,.68-.94,1.01-.02,.22,0,.45,.13,.7,.25,.55,.95,.83,1.48,.62,.53-.22,.73-1.12,.39-1.81-.22-.44-.61-.62-1.06-.51Z"/><path class="cls-6" d="M96.53,75.17c-.27-.67-1.21-1.06-1.87-.78-.57,.24-.92,1.22-.66,1.85,.26,.64,1.09,.84,1.93,.46,.6-.26,.85-.92,.6-1.53Z"/><path class="cls-6" d="M96.02,78.35c-.53,.32-.79,1.17-.52,1.71,.17,.34,.83,.48,1.24,.27,.62-.33,.81-.9,.49-1.46-.27-.49-.85-.73-1.21-.51Z"/><path class="cls-6" d="M96.5,71.74c-.36,.17-.49,.5-.34,.84,.17,.37,.59,.53,.92,.36,.33-.18,.49-.65,.31-.96-.17-.3-.55-.4-.89-.24Z"/><path class="cls-6" d="M97.69,85.85c-.16,.07-.19,.33-.15,.45,.04,.12,.33,.38,.48,.31,.15-.07,.17-.46,.11-.56-.06-.11-.27-.26-.44-.19Z"/><path class="cls-6" d="M105.79,74.3c.48-.27,.73-.98,.51-1.45-.16-.36-.92-.52-1.41-.3-.47,.21-.69,.72-.49,1.13,.26,.53,.98,.85,1.38,.62Z"/><path class="cls-6" d="M99.98,71.91c.33-.25,.36-.56,.22-.9-.19-.46-.73-.82-1.09-.69-.7,.26-.66,1.04-.61,1.45,.05,.4,.97,.54,1.47,.15Z"/><path class="cls-6" d="M113.54,58.41c-.15-.33-.59-.46-.95-.29-.38,.19-.55,.59-.4,.91,.17,.35,.59,.52,.93,.38,.36-.15,.58-.67,.42-1Z"/><path class="cls-6" d="M114.37,67.76c.06-.25,.11-.5,.16-.75-.12,.01-.21,.04-.26,.11-.09,.12-.04,.4,.09,.64Z"/><path class="cls-6" d="M112.75,72.68c0,.05,.02,.12,.04,.18,.06-.16,.13-.33,.18-.49-.13,.09-.22,.21-.23,.31Z"/><path class="cls-6" d="M115.64,55.96c0-.26,0-.53-.02-.79-.02-.05-.02-.09-.04-.14-.09-.2-.23-.34-.38-.42,.13,0,.27-.06,.39-.14-.02-.39-.05-.79-.08-1.18-.07-.04-.14-.08-.22-.09-.36-.06-.68,.15-.75,.51-.06,.33,.1,.66,.35,.82-.09,0-.18,.03-.27,.07-.38,.2-.76,.99-.63,1.3,.2,.49,.76,.66,1.33,.42,.16-.07,.26-.2,.32-.36Z"/><path class="cls-6" d="M115.54,57.92c-.09,.21-.06,.37,.09,.54,0-.22,.01-.45,.02-.67-.03,.04-.08,.09-.1,.13Z"/><path class="cls-6" d="M112.48,66.21c-.2-.04-.37,.29-.36,.4,0,.14,.11,.36,.27,.4s.34-.18,.37-.31c.03-.1-.08-.45-.28-.49Z"/><path class="cls-6" d="M113.69,63.31c-.29,.12-.21,.8,.21,1.15,.42,.35,.95-.15,1.04-.41,.1-.26-.97-.86-1.25-.74Z"/><path class="cls-6" d="M106.63,76.36c-.19,.26-.77,.53-.64,.89,.13,.36,.73,.31,1.03,.43l.16-.15c.16-.39,.09-.51-.08-.78-.17-.27-.38-.36-.47-.39Z"/><path class="cls-6" d="M112.52,60.58c.05-.19-.13-.56-.32-.68-.47-.28-1.07,.1-1.16,.51-.09,.4,.32,.91,.9,.78,.23-.05,.51-.37,.57-.61Z"/><path class="cls-6" d="M108.42,59.25c-.03-.06-.07-.12-.12-.17,.18,.03,.37,.02,.59-.05,.55-.16,.88-.53,1.19-.96,.11-.15,.28-.3,.45-.36,.7-.24,.91-.72,.6-1.39,.1,0,.19-.02,.26-.07,.27-.17,.32-.65,.12-1.02-.24-.45-.73-.64-1.09-.44-.33,.19-.43,.62-.22,.97h0c-.16,.03-.34,.11-.51,.22,.04-.08,.08-.17,.09-.27,.05-.35-.24-.72-.61-.78-.46-.07-.83,.17-.88,.58-.05,.41,.23,.77,.66,.84,.07,.01,.13,0,.2,0-.13,.07-.28,.11-.46,.11-.56,0-.88,.42-1.16,.82-.26,.37-.16,1.01,.14,1.39,.03,.04,.06,.07,.09,.1-.3-.09-.64-.08-.88,.06-.39,.21-.46,.74-.17,1.3,.22,.43,.8,.72,1.13,.55,.46-.23,.78-1.01,.58-1.43Z"/><path class="cls-6" d="M104.9,81.59c-.23,.13-.34,.78-.18,1.11,.17,.35,.57,.47,.94,.27,.36-.19,.48-.52,.31-.84-.21-.4-.79-.69-1.07-.54Z"/><path class="cls-6" d="M94.82,18.7s.09,0,.13,0c-.29-.19-.59-.37-.88-.55,.18,.29,.44,.51,.75,.55Z"/><path class="cls-6" d="M109.79,68.73c-.18,.18-.34,.5-.32,.75,.02,.28,.58,.43,.83,.23,.17-.13,.22-.4,.28-.52-.22-.47-.59-.66-.79-.46Z"/><path class="cls-6" d="M111.02,63.63c-.32-.42-1.17-.47-1.62-.19-.27,.17-.43,.4-.32,.69,.29,.74,.66,1.44,1.34,1.91,.12,.08,.29,.1,.35,.13,.83,.08,1.3-.54,1-1.27-.18-.45-.46-.88-.75-1.27Z"/><path class="cls-6" d="M111.1,72.64c-.3,.1-.2,.55-.13,.68,.07,.14,.28,.36,.52,.25,.24-.11,.23-.39,.19-.54-.04-.14-.28-.49-.58-.39Z"/><path class="cls-6" d="M108.1,67.59c-.29,.15-.42,.52-.19,.77,.17,.19,.42,.34,.62,.32,.2-.02,.59-.56,.45-.84-.15-.3-.55-.42-.88-.25Z"/><path class="cls-6" d="M76.89,19.4c-.06,.43,.45,1.06,.91,1.14,.38,.07,.98-.46,1.03-.9,.04-.35-.27-.8-.58-.86-.69-.12-1.3,.15-1.36,.62Z"/><path class="cls-6" d="M83.64,17.04c.36,.04,.67-.23,.68-.6,.02-.4-.27-.75-.64-.77-.38-.02-.56,.21-.61,.56-.06,.42,.2,.78,.57,.82Z"/><path class="cls-6" d="M82.18,26.14c.1,.11,.29,.23,.41,.2,.1-.02,.38-.19,.29-.47-.09-.27-.42-.12-.56-.08-.08,.02-.18,.3-.14,.34Z"/><path class="cls-6" d="M84.69,25.34c-.49-.08-1.11,.26-1.21,.67-.13,.51,.37,1.27,.9,1.34,.35,.05,.79-.4,.89-.91,.1-.52-.17-1.03-.58-1.1Z"/><path class="cls-6" d="M80.84,18.81c-.05,.37,.24,.78,.59,.82,.34,.04,.65-.21,.72-.58,.02-.12,.01-.22,0-.32,.1-.12,.18-.27,.15-.37-.05-.15-.42-.29-.58-.25-.05,.01-.13,.08-.21,.16-.33,0-.61,.22-.66,.54Z"/><path class="cls-6" d="M79.35,17.05c.7,.17,1.57-.35,1.73-1.05,.14-.6-.45-1.47-1.11-1.63-.67-.16-1.32,.39-1.51,1.29-.14,.64,.24,1.23,.88,1.39Z"/><path class="cls-6" d="M80.33,13.16c.45,.08,.81-.09,1-.45-.73-.19-1.47-.36-2.21-.51,.15,.44,.64,.86,1.2,.96Z"/><path class="cls-6" d="M89.06,80.03c-.39,.18-.49,.84-.21,1.39,.18,.35,.45,.38,.77,.24,.47-.2,.76-.77,.59-1.11-.19-.38-.84-.67-1.16-.52Z"/><path class="cls-6" d="M83.26,21.07c.21,.56,.58,.58,.5,.78-.08,.2-.47,.52-.3,.87,.17,.36,1.36,.31,1.53,.21s.5-.56,.8-.28c.3,.28,.4,.78,.83,.85,.43,.07,1.42,.27,1.8-.3,.36-.54-.19-.76-.3-1.14s-.49-.75-.99-.66-.95,.41-1.2,.35c-.25-.06-.52-.21-.4-.59,.06-.19,.03-.42-.12-.64,.19,.13,.43,.18,.62,.1,.31-.14,.44-.47,.35-.82,.51-.13,1.06-.66,1.12-1.17,.05-.42-.4-.83-.97-.89-.68-.07-1,.2-1.1,.92-.03,.25,.02,.49,.11,.69h0c-.37,.17-.52,.57-.35,.92,.01,.03,.04,.05,.06,.07-.15-.14-.34-.27-.63-.35-.79-.21-1.57,.51-1.36,1.06Z"/><path class="cls-6" d="M89.95,19.81c-.27,.12-.52,.41-.55,.75-.03,.34,.17,.64,.52,.65,.27,0,.66-.08,.81-.27,.19-.25,.17-.52,.07-.75,.1-.08,.23-.28,.22-.38,.07,0,.14,.01,.21,.03,.18,.04,.49-.12,.63-.29,.22-.27,.48-.47,.74-.7,.35-.31,.4-.83,.14-1.15-.39-.48-.75-.57-1.21-.22-.24,.19-.4,.48-.63,.77-.17-.06-.34-.12-.51-.19-.33-.12-.63-.02-.83,.22-.27,.33-.19,.72-.03,1.09,.09,.22,.24,.37,.43,.43Z"/><path class="cls-6" d="M91.84,21.38c-.02,.33,0,.62,.06,.87-.25,.2-.34,.45-.21,.67,.19,.31,.84,.53,1.14,.39,.36,.16,.77,.23,1.11,.08,.58-.26,1.03-1.12,1.28-1.11s.77,1.01,1.62,.94c.53-.04,.89-.34,1.09-.74-.05,.12-.09,.25-.11,.4-.08,.56,.22,.93,.81,1.01,.61,.09,1.19-.31,1.31-.9,.04-.2-.01-.4-.09-.59-.26-.23-.52-.45-.78-.67-.02,0-.04-.02-.05-.02-.42-.05-.81,.22-1.03,.65,.09-.21,.14-.44,.15-.67,.01-.38-.29-.85-.68-1.23-.36-.27-.72-.54-1.09-.79-.03,.05-.05,.11-.06,.16-.67-.01-.94,.78-1.13,.8-.19,.02-.8-.91-1.65-.91-.84,0-1.64,1.08-1.67,1.68Z"/><path class="cls-6" d="M90.58,16.83c.36,.05,.68-.02,.96-.16-.64-.34-1.28-.67-1.93-.98,.08,.55,.49,1.07,.98,1.14Z"/><path class="cls-6" d="M87.74,26.25c-.12,.84,.24,1.42,.95,1.52,.7,.1,1.46-.41,1.53-1.03,.09-.76-.39-1.47-1.08-1.59-.73-.13-1.29,.31-1.4,1.1Z"/><path class="cls-6" d="M86.29,14.99c.16-.22,.24-.42,.22-.62-.32-.12-.64-.25-.96-.36-.13,.11-.21,.26-.17,.51,.09,.49,.49,.54,.9,.47Z"/><path class="cls-6" d="M87.14,16.99c.4,.08,.68-.1,.76-.47,.09-.39-.13-.78-.49-.87-.35-.08-.71,.19-.78,.6-.06,.36,.15,.67,.51,.74Z"/><path class="cls-6" d="M82.78,29.54c.27,.63,1.03,.82,1.82,.46,.64-.29,.88-.97,.58-1.6-.3-.62-1.22-.95-1.82-.64-.54,.28-.84,1.18-.58,1.78Z"/><path class="cls-6" d="M66.12,26.11c.12-.06,.13-.32,.11-.46-.01-.08-.25-.3-.43-.22-.18,.08-.1,.42-.05,.55,.03,.08,.26,.19,.37,.13Z"/><path class="cls-6" d="M77.81,84.9c.16,.06,.33,.09,.46,.04,.13-.05,.24-.16,.34-.27-.26,.08-.53,.16-.79,.23Z"/><path class="cls-6" d="M68.17,20.58c.44,.07,1.02-.23,1.06-.55,.03-.26-.43-.74-.79-.8-.39-.07-.71,.19-.77,.6-.05,.4,.14,.69,.5,.75Z"/><path class="cls-6" d="M69.62,11.94c.13,.02,.38-.07,.41-.24,.04-.17-.15-.35-.27-.38-.12-.04-.5,.04-.53,.21-.03,.17,.27,.4,.39,.42Z"/><path class="cls-6" d="M88.28,86.47c-.07,.19,.27,.54,.46,.8,.05,.07,.17,.24,.41,.1s.41-.76,.16-1.07c-.25-.3-.88-.27-1.03,.17Z"/><path class="cls-6" d="M75.95,15.44c.56,.07,1.09-.26,1.13-.68,.05-.62-.48-1.33-1.08-1.43-.38-.06-.88,.39-.95,.85-.09,.69,.25,1.18,.89,1.26Z"/><path class="cls-6" d="M84.98,83.65c-.32,.14-.49,.54-.33,.83,.18,.33,.49,.37,.78,.23,.27-.13,.37-.38,.26-.69-.12-.33-.43-.49-.71-.37Z"/><path class="cls-6" d="M86.28,81.31c-.3,.15-.57,.79-.43,1.03,.19,.33,.83,.5,1.15,.32,.32-.18,.42-.62,.22-.97-.19-.34-.65-.52-.94-.38Z"/><path class="cls-6" d="M72.88,17.66c.1-.09,.37-.22,.44-.42,.16-.45-.13-.98-.49-1.07-.37-.09-.87,.23-.94,.58-.06,.34,.35,.77,.98,.9Z"/><path class="cls-6" d="M74.86,19.44c-.04-.2-.21-.45-.39-.53-.28-.12-.7,.27-.65,.58,.03,.19,.22,.36,.28,.45,.49,.04,.82-.21,.76-.51Z"/><path class="cls-6" d="M74.94,18.49c.4-.02,.57-.48,.64-.71,.09-.32-.21-.47-.5-.51-.34-.05-.68,.2-.62,.49,.05,.22,.09,.75,.48,.73Z"/><path class="cls-6" d="M71.49,11.72c.07,.03,.39-.03,.43-.22,.01-.07-.03-.13-.08-.18-.21,0-.42,0-.63-.02-.01,.02-.03,.04-.03,.06-.02,.13,.18,.3,.31,.36Z"/><path class="cls-6" d="M71.3,27.8c.15-.07,.17-.46,.11-.56-.06-.11-.28-.26-.44-.19-.16,.07-.19,.33-.15,.45,.04,.12,.33,.38,.48,.31Z"/><path class="cls-6" d="M71.86,24.67c.32,.02,.52-.09,.6-.15-.1-.31,.02-.93-.35-1.04-.36-.11-.68,.41-.95,.57l.03,.22c.22,.36,.36,.38,.68,.39Z"/></g><g><circle class="cls-4" cx="70.6" cy="49.01" r="8.02"/><path class="cls-4" d="M56.23,70.51c0-7.94,6.43-14.37,14.37-14.37s14.37,6.43,14.37,14.37"/></g></svg>