<?xml version="1.0" encoding="UTF-8"?>
<svg width="32px" height="32px" viewBox="0 0 32 32" version="1.1" xmlns="http://www.w3.org/2000/svg" xmlns:xlink="http://www.w3.org/1999/xlink">
    <!-- Generator: Sketch 55.1 (78136) - https://sketchapp.com -->
    <title>icon-hand-health-32-color</title>
    <desc>Created with Sketch.</desc>
    <g id="icon-hand-health-32-color" stroke="none" stroke-width="1" fill="none" fill-rule="evenodd">
        <path d="M30.8331068,24.2928932 L26.5451068,20.0048932 C24.6215383,18.0813247 22.0111711,17 19.291,17 L13.126,17 C11.4697153,17 10.126,18.3437153 10.126,20 C10.126,21.6562847 11.4697153,23 13.126,23 L18.126,23 L18.126,21 L13.126,21 C12.5742847,21 12.126,20.5517153 12.126,20 C12.126,19.4482847 12.5742847,19 13.126,19 L19.291,19 C21.4807204,19 23.582385,19.8705986 25.1308932,21.4191068 L29.4188932,25.7071068 L30.8331068,24.2928932 Z" id="Stroke-1" fill="#535966" fill-rule="nonzero"></path>
        <path d="M11.7845356,19.2474505 L4.91653564,13.2374505 C3.9082003,12.3559116 2.43413153,12.2593952 1.3202998,13.0019497 C-0.10733654,13.9542103 -0.431580683,15.9158161 0.614343307,17.2756682 L6.41943459,24.8207869 C8.44553532,27.4557106 11.5814339,29 14.906,29 L21.211,29 C21.4270713,29 21.6286739,29.1140272 21.7398185,29.2990144 L22.9302786,31.2851148 L24.6457214,30.2568852 L23.4547214,28.2698852 C22.9813927,27.4820837 22.1290581,27 21.211,27 L14.906,27 C12.2024645,27 9.65240278,25.7442089 8.004735,23.6014336 L2.19956541,16.0562131 C1.8596763,15.6143082 1.96520598,14.9758768 2.42990312,14.665915 C2.79182782,14.4246319 3.27176291,14.4560562 3.59981461,14.7428559 L10.4674644,20.7525495 L11.7845356,19.2474505 Z" id="Stroke-3" fill="#535966" fill-rule="nonzero"></path>
        <path d="M18.126,4 L18.126,-3.55271368e-15 L12.126,-3.55271368e-15 L12.126,4 L8.126,4 L8.126,10 L12.126,10 L12.126,14 L18.126,14 L18.126,10 L22.126,10 L22.126,4 L18.126,4 Z M20.126,8 L16.126,8 L16.126,12 L14.126,12 L14.126,8 L10.126,8 L10.126,6 L14.126,6 L14.126,2 L16.126,2 L16.126,6 L20.126,6 L20.126,8 Z" id="Stroke-5" fill="#00BFB3" fill-rule="nonzero"></path>
    </g>
</svg>